<svg width="1366" height="760" viewBox="0 0 1366 760" fill="none" xmlns="http://www.w3.org/2000/svg">
<g id="flowers" clip-path="url(#clip0_101_2)">
<rect width="1366" height="760" fill="white"/>
<path id="background" d="M1367.86 129.72V329.18C1367.42 326.63 1367.02 324.04 1366.7 321.39V628.31C1366.54 629.21 1366.39 630.11 1366.23 631.01C1366.07 631.91 1365.92 632.82 1365.76 633.73C1365.6 634.64 1365.45 635.55 1365.3 636.46C1365.15 637.37 1364.99 638.29 1364.84 639.21C1364.49 641.323 1364.15 643.44 1363.84 645.56C1363.58 647.14 1363.33 648.72 1363.08 650.3C1362.82 651.93 1362.57 653.56 1362.32 655.19C1362.12 656.47 1361.92 657.74 1361.73 659.02C1361.67 659.38 1361.62 659.74 1361.57 660.1C1361.34 661.6 1361.11 663.1 1360.89 664.59L1360.83 665.02C1360.58 666.65 1360.34 668.29 1360.1 669.93C1359.1 676.47 1358.22 682.93 1357.34 689.36C1357.12 691.02 1356.89 692.67 1356.67 694.36C1356.31 697 1355.96 699.62 1355.62 702.19C1355.51 703.05 1355.39 703.91 1355.28 704.76C1355.13 705.88 1354.99 706.99 1354.85 708.1C1354.66 709.51 1354.48 710.92 1354.3 712.31C1354.3 712.69 1354.2 713.07 1354.16 713.45C1354.01 714.56 1353.87 715.65 1353.74 716.74C1353.36 719.733 1352.99 722.643 1352.64 725.47C1352.43 727.15 1352.23 728.8 1352.03 730.47C1351.91 731.47 1351.79 732.4 1351.68 733.34C1351.5 734.79 1351.33 736.21 1351.17 737.59C1351.11 738.11 1351.04 738.59 1350.98 739.14C1350.64 742.04 1350.31 744.8 1349.98 747.4C1349.89 748.12 1349.81 748.82 1349.73 749.51C1349.47 751.78 1349.22 753.92 1349 755.91C1348.92 756.57 1348.85 757.21 1348.78 757.84C1348.63 759.19 1348.49 760.46 1348.35 761.65C1348.28 762.37 1348.2 763.06 1348.13 763.71C1348.03 764.59 1347.94 765.41 1347.86 766.17C1347.81 766.58 1347.77 766.97 1347.73 767.34H-0.140015V-0.689941H1354.05C1351.12 1.64063 1348.91 4.76424 1347.7 8.31006C1346.52 12.1001 1346.7 16.5901 1344.96 20.0101C1344.85 20.2343 1344.73 20.4514 1344.6 20.6601C1344.5 20.8252 1344.4 20.9854 1344.29 21.1401C1344.24 21.2206 1344.19 21.2975 1344.13 21.3701C1343.97 21.603 1343.79 21.8236 1343.6 22.0301C1343.48 22.1795 1343.35 22.3199 1343.21 22.4501C1343.05 22.6101 1342.9 22.7601 1342.73 22.9001C1342.58 23.0301 1342.43 23.1601 1342.27 23.2801C1341.93 23.5411 1341.56 23.7751 1341.18 23.9801C1341.06 24.0597 1340.93 24.1299 1340.8 24.1901L1340.69 24.2501H1340.6C1340.38 24.3601 1340.15 24.4601 1339.92 24.5501C1339.3 24.806 1338.66 25.0133 1338.01 25.1701C1337.64 25.2701 1337.26 25.3501 1336.88 25.4201H1336.74L1336.4 25.4801C1335.98 25.5501 1335.55 25.6101 1335.12 25.6601C1334.49 25.7301 1333.86 25.7801 1333.24 25.8301C1332.55 25.9524 1331.85 25.8322 1331.24 25.4901C1329.41 24.1701 1330.24 20.1501 1328.94 18.0101C1327.3 15.3601 1324.19 17.5101 1321.87 19.0101C1316.36 22.6101 1309.87 21.3701 1303.78 20.0101C1301.02 25.7501 1298.21 31.6701 1297.25 38.3701C1296.29 45.0701 1297.61 52.8101 1301.78 56.7501C1303.78 58.6701 1306.29 59.5201 1308.38 61.3101C1310.47 63.1001 1312.2 66.4901 1311.38 69.6101C1310.11 74.3301 1304.62 74.0001 1302.38 78.0301C1296.48 71.3401 1288.15 68.6701 1280.61 71.0301C1283.44 77.2153 1285.48 83.7337 1286.67 90.4301L1279.7 92.7101C1281.11 100.44 1287.14 104.79 1292.7 107.64C1298.63 110.646 1304.79 113.171 1311.12 115.19C1313.49 115.963 1315.89 116.7 1318.32 117.4L1319.63 117.77C1320.41 117.99 1321.19 118.21 1321.98 118.41C1323.21 118.74 1324.44 119.05 1325.68 119.35C1326.3 119.51 1326.92 119.65 1327.54 119.79L1329.4 120.2L1331.27 120.59L1332.89 120.91C1333.6 121.05 1334.31 121.18 1335.02 121.29L1336.9 121.6L1338.78 121.88C1339.41 121.98 1340.03 122.06 1340.66 122.13C1341.29 122.2 1341.66 122.26 1342.14 122.31C1341.83 122.72 1341.53 123.14 1341.25 123.58C1340.97 124.02 1340.84 124.25 1340.66 124.58C1340.48 124.91 1340.25 125.34 1340.07 125.72C1339.91 126.05 1339.77 126.37 1339.63 126.72C1339.6 126.802 1339.57 126.882 1339.53 126.96C1339.21 127.725 1338.94 128.506 1338.7 129.3C1338.7 129.34 1338.7 129.38 1338.7 129.42C1338.59 129.78 1338.49 130.13 1338.4 130.48C1338.31 130.83 1338.19 131.26 1338.1 131.64C1338.01 132.02 1337.93 132.39 1337.86 132.75C1337.75 133.28 1337.65 133.8 1337.57 134.28C1337.47 134.96 1337.38 135.58 1337.32 136.13C1337.32 136.37 1337.26 136.6 1337.24 136.81C1337.24 137.037 1337.22 137.247 1337.18 137.44C1337.18 137.527 1337.18 137.613 1337.18 137.7C1337.18 137.78 1337.18 137.85 1337.18 137.92C1337.18 137.99 1337.18 138.05 1337.18 138.11C1337.18 138.34 1337.18 138.46 1337.18 138.46C1337.18 138.46 1337.57 137.79 1338.33 136.75L1338.59 136.39C1339.27 135.477 1340 134.6 1340.77 133.76C1341.28 133.2 1341.84 132.62 1342.46 132.04C1342.64 131.86 1342.83 131.69 1343.02 131.52L1343.4 131.18C1343.64 130.96 1343.9 130.74 1344.16 130.53C1344.69 130.09 1345.24 129.66 1345.83 129.25C1346.11 129.04 1346.4 128.84 1346.7 128.64L1347.54 128.11C1347.75 127.98 1347.96 127.85 1348.18 127.73C1348.4 127.61 1348.64 127.46 1348.88 127.34C1349.12 127.22 1349.33 127.09 1349.56 126.98C1349.79 126.87 1350.12 126.69 1350.4 126.57C1350.68 126.45 1350.76 126.4 1350.94 126.33L1351.67 126.02C1352.12 125.84 1352.58 125.67 1353.06 125.51C1353.38 125.4 1353.7 125.3 1354.06 125.21C1354.42 125.12 1354.98 124.96 1355.46 124.85C1356.17 124.69 1356.89 124.566 1357.62 124.48C1359.11 124.283 1360.62 124.351 1362.09 124.68C1362.35 124.75 1362.61 124.82 1362.85 124.9C1363.09 124.976 1363.33 125.066 1363.56 125.17C1363.77 125.26 1363.97 125.36 1364.16 125.46H1364.26C1364.39 125.532 1364.53 125.612 1364.65 125.7C1365.13 125.98 1365.58 126.316 1365.99 126.7C1366.18 126.88 1366.35 127.07 1366.52 127.27C1366.61 127.365 1366.69 127.465 1366.76 127.57V127.57C1366.85 127.68 1366.93 127.8 1367.01 127.91C1367.09 128.02 1367.17 128.14 1367.23 128.25C1367.32 128.388 1367.41 128.532 1367.48 128.68C1367.63 129.017 1367.76 129.364 1367.86 129.72Z" fill="#346BB3"/>
<g id="hand">
<path id="Vector" d="M982.952 430.15L983.952 442.15L962.062 457.15C957.841 455.095 953.195 454.067 948.502 454.15C929.732 454.15 908.872 452.15 878.632 472.15L848.392 492.15L827.252 497.94L817.112 493.15L812.942 485.15L802.512 480.15L825.452 468.15L851.922 457.15L870.292 445.15L919.292 423.15L946.402 420.47L959.962 419.15L982.952 430.15Z" fill="#DDEDCF"/>
<path id="Vector_2" d="M731.869 533.97L750.409 530.15L819.239 500.15L827.289 497.94L848.429 492.15L878.669 472.15C908.909 452.15 929.769 454.15 948.539 454.15C953.232 454.067 957.879 455.095 962.099 457.15C966.733 459.334 970.475 463.045 972.699 467.66V479.15L923.559 507.15L825.559 577.15L795.269 606.65L779.679 613.15L757.779 615.15L550.279 656.15L524.209 653.15L475.209 631.15L386.569 588.15L286.469 562.15L174.889 557.15L-2.46094 580.74L-0.850937 382.74L226.949 383.13L386.489 365.13L474.079 388.13L548.079 442.13L623.159 480.13L672.159 496.13L728.469 529.13L731.869 533.97Z" fill="#DDEDCF"/>
<path id="Vector_3" d="M946.458 409.16V420.48L919.338 423.16L870.338 445.16L851.958 457.13L825.498 468.16L802.558 480.16L797.648 475.89L843.218 448.16L873.458 420.16L896.398 408.16L899.338 407.45L925.398 401.16L942.278 404.16L946.458 409.16Z" fill="#DDEDCF"/>
<path id="Vector_4" d="M899.341 407.45L896.401 408.16L873.461 420.16L843.221 448.16L797.651 475.89L791.091 470.16L775.441 467.16L766.061 458.16L761.461 456.55L795.261 441.16H802.561L839.051 414.16L869.291 402.16H889.571L899.341 407.45Z" fill="#DDEDCF"/>
<path id="rock" d="M827.291 497.95L819.241 500.16L750.421 530.16L731.881 533.98L728.521 529.16L672.211 496.16L623.201 480.16L548.121 442.16L603.391 429.16L636.761 433.16L661.781 431.16L674.301 428.16L687.851 431.16L702.451 430.16L721.221 438.16L746.251 447.31L754.491 454.1L761.451 456.55H761.461L766.061 458.16L775.441 467.16L791.091 470.16L797.651 475.89L802.561 480.16L812.981 485.16L817.151 493.16L827.291 497.95Z" fill="#020202"/>
</g>
<g id="plant-1">
<g id="leaves">
<path id="stem-3" d="M639.348 276.52C650.778 281.92 680.988 320.69 680.988 320.69H681.698C681.698 320.69 649.608 278.22 639.328 275.52L639.348 276.52Z" fill="#538209"/>
<path id="stem-2" d="M678.701 271.4C674.001 295.25 684.131 327.96 684.131 327.96L683.661 329.18C683.661 329.18 672.801 289.86 678.051 270.24L678.701 271.4Z" fill="#538209"/>
<path id="left-3" d="M638.972 236.51L626.802 253.43C626.195 254.243 625.815 255.202 625.702 256.21C625.262 260.49 624.232 272.94 625.872 283.79L625.932 284.18C626.134 285.44 626.751 286.596 627.684 287.466C628.616 288.337 629.813 288.872 631.083 288.986C632.354 289.101 633.627 288.789 634.7 288.1C635.774 287.41 636.587 286.383 637.012 285.18L641.702 271.97C641.929 271.329 642.268 270.733 642.702 270.21L657.422 252.31C657.91 251.723 658.274 251.042 658.492 250.31C659.602 246.6 662.892 234.79 660.722 231.95C659.976 230.966 658.936 230.246 657.752 229.895C656.568 229.544 655.303 229.581 654.142 230L641.702 234.45C640.602 234.84 639.649 235.559 638.972 236.51V236.51Z" fill="#507900"/>
<path id="leaf-2" d="M683.109 257.69C683.109 257.69 674.289 264.33 675.829 271.58C677.369 278.83 681.629 281.65 685.899 278.83C690.169 276.01 694.429 276.01 694.429 270.37C694.429 264.73 690.989 256.31 683.109 257.69Z" fill="#538209"/>
<path id="stem-1" d="M702.699 253.7C713.019 287.11 700.329 291.7 677.699 319.29C677.849 319.64 677.989 320 678.149 320.35C700.259 291.17 714.149 287.57 703.799 252.73L702.699 253.7Z" fill="#538209"/>
<path id="left-1" d="M701.7 237.24C701.7 237.24 674.93 233.95 676 242.73C677.07 251.51 687.45 258.97 700.23 260.94C713.01 262.91 724.59 267.62 727 262.12C729.41 256.62 723.7 244.59 701.7 237.24Z" fill="#538209"/>
</g>
<path id="stem" d="M681.03 315.43C682.63 319.12 687.25 316.79 687.25 316.79C685.916 319.796 685.205 323.041 685.16 326.33L682.07 412.18L678.97 439.37V463.64H674.84V445.56L678.97 410.82V329.06C678.818 324.655 677.383 320.39 674.84 316.79C674.84 316.79 679.85 312.7 681.03 315.43Z" fill="#98B62D"/>
<ellipse id="plant-clip" cx="677.5" cy="383.5" rx="30.5" ry="84.5" fill="#36FF04"/>
</g>
<g id="white-flower-2">
<path id="stem_2" d="M527.2 768.664L522.645 748.84C519.921 738.82 516.825 730.548 513.376 725.833C508.536 719.245 504.978 711.842 502.881 703.995C499.614 691.814 500.971 682.766 500.971 682.766C492.549 679.58 483.43 678.565 474.491 679.819C471.768 680.237 469.094 680.918 466.508 681.852C463.646 682.905 460.917 684.276 458.375 685.939C446.729 693.546 436.744 703.336 429 714.742C429.804 712.856 442.16 685.153 467.383 676.705C469.456 675.997 471.579 675.442 473.737 675.045L475.235 674.799C475.235 674.799 489.681 673.935 495.884 676.931C487.717 669.516 478.652 663.106 468.891 657.843C468.509 657.637 468.107 657.441 467.705 657.234C456.405 651.488 443.306 647.568 431.584 650.996C431.584 650.996 463.151 634.296 498.317 672.608C498.317 672.608 492.204 645.77 494.507 628.225C496.809 610.68 488.143 586.887 488.143 586.887C488.143 586.887 470.801 588.194 467.886 600.542C467.886 600.542 465.463 590.719 474.149 586.357C472.282 586.583 470.4 586.675 468.519 586.632C464.759 586.465 461.271 581.72 456.827 581.062C456.827 581.062 463.864 578.675 477.497 583.213C477.497 583.213 477.497 583.017 477.426 582.693C477.165 580.954 476.119 575.502 473.717 575.816C473.717 575.816 479.447 574.942 481.649 581.209L479.336 561.739C479.336 561.739 485.78 579.264 490.234 579.913C490.234 579.913 495.351 581.376 505.545 564.706C506.42 563.281 507.324 561.709 508.279 560C508.279 560 509.516 570.374 503.142 577.948C503.544 577.653 509.958 572.928 513.969 571.071C516.666 569.89 519.639 569.439 522.575 569.765C522.575 569.765 511.416 574.097 506.309 580.158C506.309 580.158 516.362 578.635 518.373 583.616L518.684 586.209C518.684 586.209 512.029 579.284 500.87 583.616C500.87 583.616 495.301 585.787 495.602 588.381C495.904 590.974 502.831 612.409 502.579 634.915C502.465 648.937 503.157 662.955 504.65 676.901C504.65 676.901 504.067 637.43 549.146 635.19C549.146 635.19 506.771 646.183 509.637 676.155C509.637 676.155 522.273 660.928 540.44 656.154C545.048 654.922 549.846 654.51 554.604 654.936C563.843 655.771 573.866 660.044 584 670.123C583.075 669.465 570.438 660.555 554.434 659.258C548.616 658.742 542.752 659.411 537.213 661.223C528.295 664.17 519.227 670.555 511.155 682.54C510.853 686.394 510.944 690.267 511.426 694.103C512.588 704.328 515.619 714.266 520.373 723.446C523.076 728.767 525.407 734.261 527.35 739.891C530.707 749.735 533.361 759.796 535.292 770L527.2 768.664Z" fill="#89A040"/>
<path id="white-flower" d="M429.359 536.523C431.139 539.793 433.809 542.523 436.459 545.093C441.359 549.933 446.369 554.783 452.319 558.253C455.559 560.133 459.059 561.593 462.119 563.753C466.949 567.163 470.419 572.113 474.539 576.353C478.659 580.593 483.999 584.353 489.899 584.093C497.319 583.803 502.899 577.603 509.259 573.753C515.259 570.113 522.259 568.463 528.079 564.513C531.538 561.972 534.665 559.009 537.389 555.693C541.469 551.073 545.449 546.253 548.059 540.693C549.969 536.603 551.059 532.203 552.819 528.033C556.759 518.553 563.959 509.273 561.929 499.203C559.444 499.448 556.946 498.886 554.806 497.6C552.666 496.314 550.998 494.372 550.049 492.063C549.735 490.966 549.303 489.906 548.759 488.903C547.759 487.443 546.119 486.663 544.519 485.903C537.319 482.693 529.279 479.413 521.779 481.843C516.889 483.423 513.049 487.213 508.429 489.443C505.229 490.956 501.722 491.708 498.183 491.641C494.644 491.573 491.168 490.687 488.029 489.053C484.259 487.053 480.859 483.903 476.609 483.513C473.779 483.253 471.009 484.263 468.359 485.263L448.179 492.823C439.999 495.893 429.799 493.353 427.669 503.683C425.719 513.233 424.619 527.783 429.359 536.523Z" fill="#F9EBDF"/>
</g>
<g id="red-flower-2">
<path id="red-flower" d="M1263.45 268.54C1274.74 274.922 1287.16 279.065 1300.02 280.74C1302.76 281.252 1305.59 281.18 1308.3 280.53C1312.72 279.19 1315.78 275.28 1318.55 271.59L1326.97 260.37L1310.6 252.12C1309.2 251.514 1307.92 250.657 1306.83 249.59C1305.91 248.324 1305.08 246.986 1304.37 245.59C1300.83 240.09 1293.37 239.11 1286.8 238.68C1297.07 234.68 1307.43 230.6 1316.58 224.44C1319 222.82 1321.5 220.8 1322.12 217.95C1322.8 214.83 1321.05 211.77 1319.72 208.87C1318.39 205.97 1317.53 202.23 1319.63 199.82C1320.33 199.01 1321.37 198.34 1321.49 197.27C1321.62 195.98 1320.34 195.04 1319.19 194.43C1311.78 190.63 1303.55 188.721 1295.23 188.873C1286.91 189.025 1278.75 191.233 1271.49 195.3C1270.38 193.017 1269.79 190.513 1269.77 187.973C1269.75 185.432 1270.3 182.92 1271.38 180.62C1273.38 176.44 1277.12 171.48 1274.2 167.87C1273.42 167.051 1272.54 166.32 1271.6 165.69C1270.11 164.448 1269 162.817 1268.38 160.979C1267.76 159.141 1267.67 157.168 1268.11 155.28C1250.02 153.38 1231.64 167.02 1228.22 184.88C1226.22 195.24 1228.76 206.21 1225.86 216.35C1223.62 205.859 1223.15 195.066 1224.48 184.42C1224.95 180.62 1225.65 176.76 1224.91 173C1224.12 169 1221.75 165.48 1219.43 162.09C1216.15 157.3 1212.26 152.09 1206.52 151.09C1202.82 150.46 1199.02 151.76 1195.29 151.33C1193.76 151.15 1192.21 150.68 1190.72 151.05C1189.31 151.52 1188.06 152.405 1187.16 153.59C1182.95 158.498 1180.34 164.575 1179.67 171.008C1179.01 177.442 1180.32 183.924 1183.44 189.59C1177.53 190.05 1173.87 183.49 1168.99 180.13C1163.33 176.24 1155.78 176.73 1149.06 178.13C1142.34 179.53 1135.58 181.81 1128.77 180.9C1127.66 185.49 1130.96 190.13 1130.43 194.81C1130.18 197.03 1129.08 199.08 1128.88 201.3C1128.68 203.52 1129.44 205.92 1130.2 208.14C1132.82 215.68 1135.81 223.75 1142.39 228.28C1152.77 235.43 1167.79 230.97 1178.71 237.28C1171.35 239.94 1163.27 237.52 1155.64 235.78C1148.01 234.04 1139.12 233.31 1133.21 238.43C1131.57 239.85 1130.21 241.65 1128.41 242.79C1127.12 243.504 1125.75 244.042 1124.32 244.39L1110.5 248.39L1116.7 261.87C1117.3 263.436 1118.21 264.864 1119.37 266.07C1120.92 267.286 1122.79 268.032 1124.75 268.22C1132.41 269.46 1140.21 267.81 1147.75 266.22L1191.41 256.81C1201.64 254.489 1212.04 252.941 1222.5 252.18C1231.15 251.65 1239.91 255.05 1247.42 259.06C1252.93 262 1258.07 265.49 1263.45 268.54Z" fill="#D10906"/>
<g id="stem_3">
<path id="Vector_5" d="M1201.28 376.31C1174.81 351.73 1130.37 349.1 1130.37 349.1C1142.84 348.117 1155.38 349.085 1167.55 351.97C1180.37 355.13 1194.55 364.56 1202.75 371.43C1202.95 338.06 1219.27 279.2 1219.27 279.2L1217.66 258.2L1208.4 256.07C1189.73 256.77 1182.1 265.8 1182.1 265.8C1183.23 258.38 1191.6 254.8 1196.43 253.28C1194.33 252.43 1177.15 245.46 1175.63 241.87L1204.73 251.44L1203.09 244.92L1212.81 250.48C1212.81 250.48 1209.58 232.29 1211.19 228.48C1211.19 228.48 1217.66 246.67 1222.51 249.55C1224.9 248.716 1227.09 247.414 1228.97 245.72C1228.97 245.72 1230.59 248.89 1228.97 251.13C1228.97 251.13 1249.77 243.88 1253.17 238.13C1252.6 239.27 1246.44 251.5 1240.29 252.41C1240.29 252.41 1243.52 253.41 1248.37 251.41C1253.22 249.41 1262.92 249.5 1264.53 250.41C1264.53 250.41 1254.83 251.41 1251.6 252.33C1246.97 253.981 1242.13 254.935 1237.22 255.16C1236.1 255.16 1235.44 255.16 1235.44 255.16C1236.05 255.16 1236.63 255.16 1237.22 255.16C1242.32 255.16 1256.74 255.61 1258.07 261.9V263.82C1258.07 263.82 1254.83 256.16 1228.97 258.07C1228.97 258.07 1225.74 258.07 1225.74 259.99L1217.7 330.91L1213.07 365.79C1221.8 355.61 1242.88 338.79 1284.86 343.28C1282.63 343.15 1274.67 343.28 1253.26 348.14C1239.99 351.039 1228.08 358.311 1219.44 368.79C1227.38 365.46 1240.7 362.38 1261.34 364.42C1298.52 368.09 1307.49 390.23 1308.16 392.07C1307.7 390.88 1302.96 381.07 1272.65 372.07C1240.33 362.5 1224.16 375.9 1224.16 375.9C1224.16 375.9 1217.26 382.69 1212.41 381.73L1230.63 492.73L1224.16 495.6C1224.16 495.6 1207.26 409.68 1203.49 382.6C1201.15 382.286 1198.87 381.678 1196.68 380.79C1196.68 380.79 1161.12 364.51 1149.81 376C1138.5 387.49 1117.48 391.32 1117.48 391.32C1117.48 391.32 1136.88 381.75 1140.11 377.92C1143.34 374.09 1156.28 364.51 1174.11 367.38C1183.59 369.039 1192.77 372.07 1201.37 376.38L1201.28 376.31Z" fill="#1F2E05"/>
<path id="Vector_6" d="M1228.43 528.31C1228.43 528.39 1228.43 538.95 1227.37 556.31C1227.27 558.07 1227.15 559.9 1227.01 561.79C1226.81 564.68 1226.58 567.73 1226.33 570.92C1226.14 573.24 1225.93 575.64 1225.71 578.1C1225.3 582.57 1224.84 587.25 1224.3 592.1C1218.86 641.74 1206.18 711.4 1176.71 766.93H1166.98C1194.86 678.93 1208.98 620.69 1216.18 583.78C1217.05 579.267 1217.82 575.073 1218.5 571.2C1219.72 564.29 1220.63 558.35 1221.33 553.28C1223.79 535.4 1223.53 528.28 1223.53 528.28L1228.43 528.31Z" fill="#1F2E05"/>
</g>
</g>
<g id="red-flower-1">
<path id="Vector_7" d="M97.8081 503.88C110.698 500.74 123.708 497.56 135.618 491.7C137.357 490.982 138.909 489.877 140.158 488.47C141.122 487.047 141.801 485.451 142.158 483.77L144.708 474.83C145.708 471.42 146.478 467.26 143.998 464.72C142.548 465.72 140.368 464.95 139.348 463.49C138.453 461.932 137.984 460.166 137.988 458.37L137.308 450.37C137.312 449.902 137.18 449.444 136.928 449.05C136.268 448.23 134.928 448.62 133.928 448.26C132.628 447.79 132.188 446.14 132.278 444.75C132.368 443.36 132.758 441.94 132.348 440.61C132.002 439.757 131.418 439.022 130.667 438.49C129.915 437.958 129.028 437.653 128.108 437.61C126.264 437.553 124.427 437.855 122.698 438.5L106.288 443.44C105.687 436.368 103.09 429.613 98.7981 423.96C94.082 425.787 89.9209 428.807 86.7219 432.725C83.5229 436.643 81.3956 441.324 80.5481 446.31C74.8081 443.79 72.3181 436.97 67.4081 433.07C60.9981 427.98 51.8881 428.73 43.7681 429.74C42.4181 429.91 40.9281 430.16 40.1181 431.24C39.6346 432.036 39.3787 432.949 39.3781 433.88L38.3781 444.41C28.5141 442.1 18.3786 441.161 8.25812 441.62C7.3044 441.57 6.35838 441.814 5.54812 442.32C4.54812 443.09 4.30812 444.49 4.15812 445.75L2.69812 458.18C2.5382 459.21 2.5382 460.259 2.69812 461.29C2.94542 462.288 3.35777 463.238 3.91812 464.1C7.28475 469.818 11.6349 474.896 16.7681 479.1C11.1005 480.584 5.09412 480.061 -0.23188 477.62C-0.88188 477.31 -1.67188 476.99 -2.23188 477.39C-2.54521 477.649 -2.77196 477.998 -2.88188 478.39C-4.25616 481.868 -4.97493 485.57 -5.00188 489.31C-5.07705 490.516 -4.84298 491.72 -4.32188 492.81C-2.95188 495.26 0.34812 495.58 3.11812 496C11.2381 497.25 18.4981 501.75 26.4981 503.65C30.8429 504.542 35.263 505.018 39.6981 505.07C50.1881 505.49 60.6981 505.33 71.1481 505.23C80.2381 505.13 88.8881 506.05 97.8081 503.88Z" fill="#D10906"/>
<path id="stem_4" d="M144.829 604.31C144.089 603.51 134.039 592.8 120.279 589.11C115.346 587.732 110.161 587.513 105.129 588.47C97.1292 590.05 88.5692 595.02 80.3192 605.67C79.6673 609.465 79.3528 613.31 79.3792 617.16C79.3387 627.473 80.9352 637.727 84.1092 647.54C85.913 653.226 87.3691 659.017 88.4692 664.88C92.2392 684.45 92.9792 705.18 92.9792 718.2C92.9792 734.2 92.7692 763.45 92.7392 766.92V767.26H86.6292C86.6292 767.26 86.6292 767.14 86.6292 766.92C86.7492 762.12 87.9492 707.92 83.4492 673.02C82.1192 662.69 80.2892 654.02 77.7792 648.85C74.2413 641.547 71.9239 633.713 70.9192 625.66C69.3392 613.11 71.4492 604.36 71.4492 604.36C71.4492 604.36 61.3692 597.36 48.7692 597.44C46.3688 597.446 43.9769 597.725 41.6392 598.27C39.0339 598.881 36.5193 599.829 34.1592 601.09C23.0899 607.038 13.3938 615.245 5.69922 625.18C6.58922 623.43 20.1592 597.86 42.9192 593.27C44.7934 592.884 46.6968 592.656 48.6092 592.59H49.9392C49.9392 592.59 62.5592 593.9 67.6292 597.79C61.4013 589.331 54.202 581.631 46.1792 574.85L45.1792 574.07C35.9592 566.69 24.9992 560.85 14.4692 562.49C14.4692 562.49 43.5792 550.7 70.1592 593.9C70.1592 593.9 67.6192 566.41 71.4192 549.4C75.2192 532.39 70.1592 507.52 70.1592 507.52C70.1592 507.52 54.9692 506.21 51.1592 518C51.1592 518 50.0692 507.91 58.0592 504.89C56.426 504.83 54.8006 504.636 53.1992 504.31C49.9492 503.59 47.4092 498.36 43.6192 497.05C43.6192 497.05 49.9492 495.74 61.3392 502.28C61.3392 502.28 61.3392 502.08 61.3392 501.75C61.2892 499.99 60.9392 494.43 58.8192 494.43C58.8192 494.43 63.8792 494.43 65.1492 500.97V481.31C65.1492 481.31 68.9392 499.63 72.7392 500.94C72.7392 500.94 77.0292 503.15 87.5892 488.18C88.4992 486.9 89.4392 485.48 90.4492 483.93C90.4492 483.93 90.4492 494.38 84.1392 500.93C84.5192 500.69 90.5692 496.98 94.2492 495.71C96.726 494.953 99.3724 494.953 101.849 495.71C101.849 495.71 91.6992 498.31 86.6992 503.58C86.6992 503.58 95.5492 503.58 96.8292 508.81V511.43C95.1494 509.094 92.7869 507.335 90.0666 506.397C87.3464 505.459 84.4022 505.386 81.6392 506.19C81.6392 506.19 76.5692 507.5 76.5692 510.12C76.5692 512.74 80.3692 534.99 77.8392 557.23C76.2935 571.135 75.4491 585.11 75.3092 599.1C75.3092 599.1 78.8692 559.94 118.219 564.48C118.219 564.48 80.3192 569.01 79.7092 599.1C79.7092 599.1 92.2592 585.93 108.509 583.93C112.669 583.406 116.891 583.715 120.929 584.84C128.809 587.06 137.069 592.79 144.829 604.31Z" fill="#89A040"/>
</g>
<g id="white-flower-1">
<path id="flower" d="M224.441 265.71C239.313 268.803 254.75 267.73 269.051 262.61C277.621 259.61 286.051 254.99 292.701 247.35C297.569 241.606 301.18 234.905 303.301 227.68C303.601 226.882 303.73 226.031 303.681 225.18C303.381 222.58 300.631 222.18 298.591 222.35C290.841 223.17 282.701 223.58 275.591 219.4C268.481 215.22 263.171 206.31 261.831 196.4C261.507 194.738 261.592 193.022 262.081 191.4C262.723 190.091 263.601 188.911 264.671 187.92C269.031 183.04 270.841 175.23 270.741 167.8C270.641 160.37 268.861 153.17 267.051 146.12L248.881 147.44C248.3 147.564 247.7 147.562 247.12 147.435C246.541 147.307 245.995 147.056 245.521 146.7C244.381 145.64 244.121 143.64 243.701 141.91C242.906 138.471 240.924 135.423 238.104 133.301C235.283 131.18 231.805 130.12 228.281 130.31C221.881 130.78 216.001 134.82 210.371 138.76L196.571 122.41C195.785 121.305 194.759 120.393 193.571 119.74C190.991 118.66 188.031 120.74 185.571 119.42C183.111 118.1 181.711 113.13 178.851 112.96C177.68 113.056 176.577 113.546 175.721 114.35C171.281 117.63 166.641 121.46 164.721 127.54C163.261 132.04 163.441 137.36 161.341 141.42C158.341 147.14 152.241 148.05 146.901 148.42C146.062 148.57 145.198 148.429 144.451 148.02C142.201 146.46 143.261 141.68 141.621 139.14C139.621 135.99 135.771 138.55 132.911 140.35C126.131 144.63 118.101 143.16 110.641 141.59C107.251 148.4 103.781 155.43 102.641 163.38C101.501 171.33 103.091 180.52 108.221 185.2C110.711 187.47 113.781 188.49 116.351 190.62C118.921 192.75 121.051 196.76 120.021 200.47C118.451 206.07 111.691 205.68 108.931 210.47C101.671 202.53 91.4108 199.36 82.1408 202.18C85.6168 209.489 88.1213 217.221 89.5908 225.18L81.0508 227.77C82.7908 236.94 90.2108 242.11 97.0508 245.5C104.366 249.084 111.949 252.093 119.731 254.5C138.801 260.5 159.731 265.02 179.451 263.3C185.231 262.79 190.841 260.75 196.651 260.63C206.001 260.4 215.171 263.77 224.441 265.71Z" fill="#F9EBDF"/>
<path id="stem_5" d="M246.27 382.88C245.2 382.26 228.12 372.22 222.18 371.98C222.18 371.98 213.74 367.91 206.08 376.3C198.42 384.69 195.75 390.8 193.26 391.94C193.26 391.94 188.26 395.44 187.15 391.73C187.35 392.92 193.33 427 197.67 440.61C197.67 440.61 212.54 470.13 210.85 534.5C210.85 536.19 210.75 537.91 210.68 539.66C210.27 550.59 209.37 562.47 207.85 575.32C196.94 668.13 183.54 699.92 183.1 712.32C182.74 722.32 180.36 754.47 179.42 766.89H169.25C171.75 745.33 183 652.58 195.11 615.83C195.11 615.83 203.11 562.68 204.11 536.61C205.11 510.54 202.51 478.1 196.92 462.95C191.33 447.8 186.92 435.18 184.92 420.19C182.92 405.2 181 392.68 181 392.68C181 392.68 175.84 399.92 168.66 394.68C161.48 389.44 149.66 377.74 140.98 379.87C132.3 382 127.24 386.77 123.57 386.63C119.9 386.49 122.31 387.82 106.57 382.2C116.846 382.971 127.13 380.803 136.22 375.95C151.22 367.86 166.45 388.37 171.31 389.82C176.17 391.27 178.61 391.36 178.65 390.11C178.69 388.86 154.03 358.03 139.34 357.42C125.04 356.84 119.94 358.99 119.66 359.1C120.01 358.68 127.85 349.63 149.18 356.58C171 363.68 180.01 386.44 180.01 386.44C180.01 386.44 176.48 347.74 182.35 320.63C188.22 293.52 186.47 273.54 186.47 273.54C186.47 273.54 185.52 266.05 175.63 268.14C165.74 270.23 160.53 278.71 160.53 278.71C160.53 278.71 160.91 268.19 166.86 264.17C167.717 263.584 168.672 263.157 169.68 262.91C169.68 262.91 164.78 262.72 161.33 256.35C157.88 249.98 152.98 249.8 152.98 249.8C152.98 249.8 166.49 249.11 173.49 259.34C174.124 260.04 174.971 260.511 175.9 260.68C177.12 260.74 174.76 258.15 174.9 253.19C174.9 253.19 178.4 258.3 180.85 258.4C180.85 258.4 179.15 237.19 182.96 233.61C182.96 233.61 181.2 248.47 189.34 261.23C189.34 261.23 191.87 258.85 191.96 256.37C191.96 256.37 195.54 258.99 194.23 261.43C198.505 258.894 202.347 255.69 205.61 251.94C210.73 245.94 210.77 244.7 210.77 244.7C210.77 244.7 211.77 249.52 203.21 263.45C203.05 263.7 202.9 263.97 202.74 264.23L203.69 263.52C205.81 261.94 210.83 258.36 212.74 258.45C215.18 258.54 218.86 258.69 221.26 260.03C221.26 260.03 213.92 259.73 211.33 263.36C210.976 263.87 210.578 264.349 210.14 264.79C208.14 266.79 206.53 266.88 206.32 266.88C206.78 266.88 214.91 267.44 215.83 274.74C214.22 272.749 212.209 271.118 209.929 269.953C207.648 268.789 205.148 268.117 202.59 267.98C194.01 267.63 193.59 278.8 193.59 278.8C193.59 278.8 193.59 313.62 190.86 320.97C188.13 328.32 186.74 367.97 186.42 376.75L186.12 385.43C186.12 385.43 193.65 345.95 223.12 344.66C223.12 344.66 234.12 345.11 237.63 350.22C237.63 350.22 225.01 344.76 214.31 350.52C199.31 358.62 195.24 369.64 190.9 388.12C195.561 383.685 199.843 378.869 203.7 373.72C208.87 366.46 216.26 365.52 223.52 368.3C230.57 371 245.36 382.18 246.27 382.88Z" fill="#1F2E05"/>
</g>
<g id="red-flower-2_2">
<path id="leaf-center" d="M283.138 410.31C283.138 410.31 311.808 361.79 319.608 358.8C327.408 355.81 362.698 421.96 362.698 421.96L320.958 493.31C320.958 493.31 275.348 446.31 276.518 430.31C277.688 414.31 283.138 410.31 283.138 410.31Z" fill="#AA250A"/>
<path id="stem_6" d="M313.702 477.58C313.702 477.58 316.762 448.16 313.942 443.28C311.122 438.4 309.162 434.76 310.502 432.78C311.842 430.8 315.212 427.01 315.212 427.01C316.277 426.832 317.372 427.026 318.312 427.56C319.462 428.44 322.552 428.99 323.252 433.16C323.952 437.33 320.412 440.06 320.932 443.16C321.452 446.26 322.842 458.82 322.842 458.82C322.842 458.82 321.312 475.21 321.972 476.17C322.632 477.13 313.702 477.58 313.702 477.58Z" fill="#E9A647"/>
<path id="Vector_8" d="M342.381 522.03C355.881 605.7 333.001 766.95 333.001 766.95H322.531C344.791 626.48 331.701 518.64 331.701 518.64L342.381 522.03Z" fill="#1F2E05"/>
<path id="Vector_9" d="M313.698 766.9H260.308C256.218 736.18 237.188 601.73 210.678 539.66C209.278 536.36 207.848 533.26 206.398 530.4C206.398 530.4 208.008 531.74 210.848 534.5C228.328 551.49 292.408 622.42 313.698 766.9Z" fill="#1F2E05"/>
<path id="Vector_10" d="M479.161 507.19C479.161 507.4 478.961 511.29 471.971 582.83C471.361 589.09 470.471 595.61 469.371 602.29C467.621 612.87 465.311 623.88 462.631 634.98C449.151 690.98 426.411 749.36 419.351 766.9H351.441C367.081 745.44 426.011 661.78 459.351 575.24C461.811 568.893 464.111 562.533 466.251 556.16C471.591 540.617 475.818 524.713 478.901 508.57C478.991 508.11 479.071 507.65 479.161 507.19Z" fill="#1F2E05"/>
<g id="leaf-left">
<path id="Vector_11" d="M221.469 370.96C221.469 370.96 227.739 382.9 241.769 385.8C255.799 388.7 306.459 446.68 328.819 481.11C351.179 515.54 343.909 525.87 343.909 525.87C343.909 525.87 293.699 566.25 259.229 507.15C224.759 448.05 216.599 389.46 221.469 370.96Z" fill="#BC2715"/>
<path id="Vector_12" d="M329.489 530.12C329.489 530.12 284.199 524.86 259.929 467.95C259.929 467.95 262.989 491.43 281.529 513.1C281.529 513.1 261.439 497.37 253.969 478.58C253.969 478.58 269.399 520.44 290.909 528.94C312.419 537.44 329.489 530.12 329.489 530.12Z" fill="#1E0000"/>
</g>
<g id="leaf-right">
<path id="Vector_13" d="M379.641 338.93C380.571 340.22 383.541 390 349.701 422.75C315.861 455.5 328.421 522.31 328.421 522.31L331.101 532.74C331.101 532.74 378.341 523.55 391.501 480.02C404.661 436.49 410.251 397.02 394.951 367.79L379.641 338.93Z" fill="#A10A02"/>
<path id="Vector_14" d="M334.512 521.17C334.512 521.17 373.792 501.47 377.082 436.58C379.769 454.116 378.145 472.042 372.352 488.81C372.352 488.81 385.352 466.61 385.972 445.36C385.972 445.36 385.742 492.36 369.052 507.71C352.362 523.06 334.512 521.17 334.512 521.17Z" fill="#1E0000"/>
</g>
</g>
<g id="white-flower-3">
<g id="leaves_2">
<path id="Vector_15" d="M1022.8 766.9H990.591C989.591 750.44 986.831 711.9 978.961 623.41C978.507 618.277 977.997 613.277 977.431 608.41C976.037 596.237 974.371 584.803 972.431 574.11C970.857 565.443 969.137 557.217 967.271 549.43C947.071 464.6 912.561 433.35 911.891 432.75C937.381 442.4 957.271 472.26 972.711 510.68C976.951 521.22 980.861 532.41 984.451 543.99C986.091 549.27 987.664 554.62 989.171 560.04C991.171 567.13 993.011 574.33 994.781 581.59C1012.83 655.68 1020.36 735.51 1022.8 766.9Z" fill="#1F2E05"/>
<path id="Vector_16" d="M1238.13 571.73C1233.87 573.6 1229.73 575.707 1225.71 578.04C1224.21 578.893 1222.59 579.837 1220.86 580.87C1219.38 581.763 1217.82 582.723 1216.18 583.75C1192.71 598.62 1153.98 628.75 1117.92 682.6C1113.44 689.3 1109 696.367 1104.61 703.8C1101.28 709.54 1097.97 715.503 1094.68 721.69C1092.5 725.83 1090.35 730.073 1088.22 734.42C1083.24 744.64 1078.45 755.467 1073.86 766.9H1045.86C1046.16 766.11 1046.52 765.21 1046.86 764.19C1046.86 764.19 1046.86 764.19 1046.86 764.12C1048.56 759.86 1051.09 753.67 1054.43 746.17C1059.92 733.74 1067.55 717.61 1077.08 700.17C1078.3 697.94 1079.56 695.69 1080.84 693.42C1089.42 678.091 1098.89 663.272 1109.19 649.04C1114.19 642.17 1119.47 635.44 1124.97 629.04C1151.14 598.41 1182.74 574.18 1218.39 571.25C1219.04 571.18 1219.7 571.14 1220.39 571.11C1222.32 570.98 1224.27 570.93 1226.24 570.94C1230.22 570.934 1234.19 571.198 1238.13 571.73V571.73Z" fill="#1F2E05"/>
</g>
<path id="leaf-left_2" d="M1079.32 415.019C1079.32 415.019 1014.52 484.809 1012.42 536.179C1010.32 587.549 1016.69 579.849 1016.69 579.849C1016.69 579.849 1069.9 517.989 1073.09 501.509C1076.28 485.029 1088.32 415.949 1084.82 412.949C1081.32 409.949 1079.32 415.019 1079.32 415.019Z" fill="#F9EBDF"/>
<path id="leaf-center_2" d="M1074.76 421.56C1074.76 421.56 1050.14 513.56 1072.31 559.94C1094.48 606.32 1096.52 596.55 1096.52 596.55C1096.52 596.55 1114.6 516.98 1109.72 500.93C1104.84 484.88 1083.16 418.18 1078.72 417.15C1074.28 416.12 1074.76 421.56 1074.76 421.56Z" fill="#F9EBDF"/>
<path id="leaf-right_2" d="M1076.98 417.719C1076.98 417.719 1096.77 510.869 1137.57 542.149C1178.37 573.429 1175.76 563.789 1175.76 563.789C1175.76 563.789 1155.76 484.669 1144.14 472.589C1132.52 460.509 1082.93 410.889 1078.46 412.019C1073.99 413.149 1076.98 417.719 1076.98 417.719Z" fill="#F9EBDF"/>
<path id="bud" d="M1080.7 423.31C1080.7 423.31 1084.31 495.03 1083.1 512.23C1081.89 529.43 1085.34 524.15 1085.34 524.15C1086 520.11 1086 515.99 1085.34 511.95C1084.26 505.22 1083.84 423.31 1083.84 423.31H1080.7V423.31Z" fill="#1F2E05"/>
<path id="stem_7" d="M1026.42 561.98C1050.7 687.41 1046.96 764.31 1046.96 764.31L1054.96 765.09C1054.96 765.09 1054.79 702.61 1044.17 635.09C1033.55 567.57 1019.39 503.45 1019.39 503.45C1019.39 503.45 999.561 428.9 1000.18 421.58C1000.8 414.26 991.251 372.71 1013 347.75C1034.75 322.79 1056.61 334.75 1059.44 339.96C1062.27 345.17 1070.96 358.31 1071.21 368.18C1071.46 378.05 1065.21 400.82 1067.79 408.46C1070.37 416.1 1072.93 424.96 1073.91 426.29C1074.89 427.62 1083.66 427.45 1083.66 427.45L1090.54 422.98L1092.15 403.98L1081.3 377.79L1078.45 360.31C1078.45 360.31 1066.45 334.53 1054.89 329.71C1043.33 324.89 1020.89 319.02 1009.62 336.38C998.351 353.74 993.331 374.18 994.291 401.38C994.897 418.006 996.399 434.586 998.791 451.05L1026.42 561.98Z" fill="#1F2E05"/>
</g>
<g id="blue-flower-2">
<path id="Vector_17" d="M1131.27 144.47C1120.27 167.13 1104 193.47 1104 193.47L1068.93 247.89L1040.08 286L1027.14 325.15L1022.56 339.03L1020.19 346.2L1008.91 396.65L1002.47 435.31L999.471 453.57L984.471 543.95L982.371 556.31L983.291 564.37L986.701 594.55L1006.38 766.9H989.701L972.931 616.22L968.701 577.9L966.301 556.36L967.301 549.36L972.701 510.65L990.001 387.31L996.101 371.31L1009.1 337.18L1030.7 280.59L1097.23 186.23C1097.23 186.23 1128.1 132.51 1129.53 112.84C1130.96 93.1701 1132.7 75.3101 1121.95 60.9201C1112.69 48.4701 1112.63 47.6301 1112.8 47.6301C1111.34 46.8901 1080.02 31.4701 1062.52 46.0301C1050.26 56.2301 1042.19 69.9401 1038.32 77.5601C1036.53 81.0901 1035.64 83.3101 1035.64 83.3101L1028.64 77.9801C1028.64 77.9801 1029.07 77.2601 1029.86 75.9801C1035.45 67.0701 1059.35 30.9801 1079.42 29.9801C1102.32 28.9101 1112.84 37.8701 1112.84 37.8701C1112.84 37.8701 1135.44 45.3101 1139.38 72.3101C1143.32 99.3101 1142.3 121.82 1131.27 144.47Z" fill="#89A040"/>
<g id="Group 9">
<path id="Vector_18" d="M992.17 84.54C986.58 87.46 980.99 90.38 975.59 93.68C968.19 98.2 961.17 103.44 953.59 107.68C944.474 112.792 934.599 116.414 924.34 118.41C930.68 122.703 936.715 127.431 942.4 132.56C937.9 138.01 933.24 143.82 931.93 151C931.1 155.58 931.72 160.35 932.54 165C933.732 171.756 935.328 178.435 937.32 185C938.44 188.68 940.32 192.9 943.86 193.61C946.71 194.17 949.38 192.15 952.25 191.85C955.88 191.46 959.25 193.85 962.25 196.26C966.01 199.4 969.56 202.81 973.11 206.26C975.905 208.847 978.546 211.595 981.02 214.49C983.74 217.81 986.58 221.83 990.66 222.23C994.74 222.63 998.44 218.94 1002.66 218.81C1004.55 218.909 1006.42 219.262 1008.22 219.86C1012.94 220.948 1017.88 220.665 1022.45 219.042C1027.02 217.419 1031.03 214.525 1034.01 210.7C1036.79 215.58 1039.79 220.323 1043.01 224.93C1043.43 225.689 1044.07 226.307 1044.84 226.71C1045.6 226.953 1046.42 226.906 1047.14 226.58C1053.05 224.4 1054.91 216.22 1060.23 212.78C1062.23 211.52 1064.5 210.98 1066.51 209.78C1071.51 206.86 1073.75 200.65 1075.64 194.92C1077.92 188.02 1080.23 180.92 1079.92 173.52C1079.74 169.35 1078.73 165.25 1078.33 161.09C1077.71 154.67 1078.55 148.24 1078.5 141.8C1078.37 128.369 1074.38 115.259 1067.03 104.02C1065.18 101.22 1063.1 98.51 1061.94 95.32C1060.85 92.32 1060.65 89.01 1059.68 85.94C1057.12 77.86 1047.86 69.69 1039.81 68.69C1036.35 68.26 1032.81 69.38 1029.47 70.04C1023.4 71.1764 1017.45 72.8874 1011.7 75.15C1005.04 77.86 998.59 81.19 992.17 84.54Z" fill="#4983BE"/>
<path id="Vector_19" d="M1016.57 130.92C1005.1 126.83 998.738 122.75 998.738 128.2C998.738 133.65 1001.28 139.88 1007.65 140.85C1014.02 141.82 1016.57 145.91 1021.65 147.28C1026.73 148.65 1029.3 154.09 1031.85 152.73C1034.4 151.37 1028.02 140.46 1024.2 136.37C1022.08 134.018 1019.48 132.158 1016.57 130.92V130.92Z" fill="#C2D071"/>
</g>
</g>
<g id="blue-flower-1">
<g id="stem_8">
<path id="Vector_20" d="M477.984 767.593L468.454 768C468.014 762.543 466.744 746.926 464.874 725.039C464.024 715.048 463.044 703.747 461.954 691.514C460.434 674.359 458.714 655.379 456.834 635.585C454.984 616.049 453.004 595.739 450.934 575.658C447.164 539.106 443.124 503.289 439.154 474.168L438.974 472.879C437.294 460.526 435.684 448.074 434.194 435.742C434.114 435.156 434.054 434.571 433.984 433.995C435.061 434.097 436.143 434.143 437.224 434.134C437.224 434.134 437.674 434.134 438.374 434.204C439.912 434.277 441.454 434.164 442.964 433.866C443.601 433.746 444.206 433.5 444.744 433.142C444.944 432.983 445.444 432.646 446.164 432.15C446.614 432.09 447.074 432.021 447.544 431.971C447.214 448.362 447.144 462.302 447.144 468.95C450.904 501.374 454.194 530.315 457.094 556.142C458.984 572.83 460.684 588.209 462.254 602.397C465.734 634.146 468.464 659.843 470.604 680.778C471.604 690.64 472.474 699.421 473.244 707.239C477.194 748.127 477.984 762.642 477.984 767.593Z" fill="#C2D071"/>
<path id="Vector_21" d="M491.025 310.034C489.155 311.581 487.719 313.58 486.855 315.838C480.973 316.141 475.148 317.141 469.505 318.814C463.255 320.799 457.945 321.553 452.505 358.094C450.505 371.34 449.345 391.402 448.625 411.592C445.745 414.569 443.125 417.545 440.995 419.986C440.285 420.81 439.635 421.574 439.055 422.268C436.945 424.778 435.685 426.386 435.685 426.386C435.685 426.386 434.105 422.278 431.685 416.692C424.455 338.707 425.775 267.043 427.205 230.977C428.403 230.111 429.733 229.441 431.145 228.993C432.055 229.906 432.995 230.779 433.965 231.602C430.745 281.648 433.845 344.006 439.705 406.592C442.995 344.69 453.775 317.574 461.365 313.903C470.705 309.379 482.195 307.603 491.025 310.034Z" fill="#C2D071"/>
<path id="Vector_22" d="M515.312 386.907C515.312 386.907 482.132 387.582 468.792 390.965C463.012 392.433 455.542 398.009 448.932 403.863C448.152 404.548 447.382 405.242 446.632 405.927C443.632 408.675 440.892 411.384 438.632 413.646L436.632 415.759C434.432 418.081 433.102 419.569 433.102 419.569C433.102 419.569 432.532 417.942 431.552 415.353C430.992 413.884 430.312 412.098 429.552 410.124C426.452 402.365 421.782 391.679 417.352 385.488C413.352 379.892 402.812 369.871 393.872 361.736L390.372 358.59C385.962 354.622 382.282 351.437 380.522 349.929L379.402 348.937C379.402 348.937 381.032 369.772 386.272 382.393C387.912 386.361 389.912 389.467 392.322 390.886C394.905 392.512 397.364 394.323 399.682 396.303V396.303C403.112 399.15 406.962 402.613 410.682 406.086C419.682 414.519 428.052 423.042 428.052 423.042C422.343 421.965 416.727 420.453 411.252 418.518C406.822 416.881 402.722 414.797 400.792 412.386C400.792 412.386 400.792 412.386 400.792 412.336C400.791 412.366 400.791 412.396 400.792 412.426C403.651 416.848 407.072 420.887 410.972 424.441C416.102 429.094 422.972 433.539 431.102 434.68C432.096 434.825 433.098 434.915 434.102 434.948H434.312C434.312 434.948 434.762 435.008 435.452 435.067C436.979 435.204 438.517 435.158 440.032 434.928C440.674 434.837 441.289 434.618 441.842 434.283C441.932 434.224 442.062 434.124 442.242 434.015L443.242 433.361L444.532 433.251H444.612C445.542 433.172 446.502 433.103 447.472 433.063C452.202 432.825 456.982 433.013 459.142 434.382C461.912 436.158 459.042 430.999 453.412 427.179C463.302 421.316 476.642 413.815 481.872 412.634C490.312 410.709 515.312 386.907 515.312 386.907ZM435.482 434.323H435.242L435.302 434.045L435.552 432.934L435.492 434.055C435.492 434.174 435.482 434.244 435.482 434.323Z" fill="#1F2E05"/>
</g>
<g id="flower-2">
<path id="Vector_23" d="M627.084 335.84C626.084 337.675 627.394 339.957 628.504 341.793C631.093 346.076 632.901 350.778 633.844 355.683C634.044 356.745 634.164 357.995 633.454 358.739C632.795 359.225 632.026 359.541 631.214 359.662C629.004 360.406 627.794 362.827 626.744 365C624.658 369.33 622.345 373.55 619.814 377.64C618.785 379.562 617.365 381.251 615.644 382.601C613.874 383.821 611.734 384.258 609.774 385.131C606.084 386.768 603.174 389.824 599.694 391.898C596.214 393.971 592.224 394.963 588.294 395.946C578.944 398.297 569.434 400.658 559.754 400.152C554.105 399.68 548.509 398.707 543.034 397.245C538.694 396.298 534.422 395.068 530.244 393.564C521.584 390.26 513.784 384.754 506.124 379.297C503.911 377.881 501.894 376.183 500.124 374.247C498.588 372.24 497.299 370.058 496.284 367.748C492.224 359.493 488.164 351.209 484.734 342.636C482.014 335.81 479.664 328.597 480.064 321.305C480.131 320.193 480.268 319.086 480.474 317.991C481.105 314.378 482.677 310.992 485.034 308.168C485.875 307.179 486.831 306.293 487.884 305.529C490.254 303.822 492.154 303.922 494.974 303.991C498.723 303.938 502.459 303.539 506.134 302.801C516.644 301.084 527.394 301.034 538.074 300.985L553.844 300.925C561.284 300.925 568.794 300.856 576.154 302.295C594.314 305.896 610.314 318.011 628.314 322.416C632.494 323.408 636.814 324.043 640.744 325.908C638.171 329.427 634.619 332.123 630.524 333.667C629.184 334.153 627.744 334.6 627.084 335.84Z" fill="#4983BE"/>
<path id="Vector_24" d="M536.221 347.567C547.681 351.625 554.051 355.683 554.051 350.276C554.051 344.869 551.501 338.678 545.131 337.715C538.761 336.753 536.221 332.695 531.131 331.345C526.041 329.996 523.491 324.579 520.941 325.938C518.391 327.297 524.761 338.102 528.581 342.16C530.701 344.493 533.308 346.339 536.221 347.567Z" fill="#C2D071"/>
</g>
<g id="flower-1">
<path id="Vector_25" d="M521.385 184.921C522.695 187.768 524.045 190.874 523.575 193.979C523.215 196.42 521.775 198.494 520.385 200.478C517.912 204.017 515.435 207.556 512.955 211.094C507.795 218.456 502.555 225.917 495.765 231.622C478.375 246.197 451.505 245.91 433.955 231.513C432.955 230.719 432.055 229.876 431.145 229.003C429.738 229.42 428.405 230.053 427.195 230.878C423.285 233.517 420.315 237.903 417.445 241.931C413.685 247.199 408.805 252.646 402.555 252.716C398.555 252.716 394.855 250.523 391.205 248.698C382.431 244.305 372.722 242.07 362.895 242.179C359.705 242.229 356.245 242.447 353.585 240.552C351.918 239.167 350.617 237.4 349.795 235.402C340.195 215.797 342.715 190.279 355.925 173.352C357.55 171.515 358.943 169.49 360.075 167.32C362.565 161.783 360.735 155.106 357.975 149.679C355.215 144.252 351.535 139.231 350.055 133.278C349.22 129.286 349.007 125.19 349.425 121.134C350.213 110.042 352.67 99.1296 356.715 88.7595C358.435 84.3642 360.475 80.0185 363.585 76.5955C366.695 73.1725 370.935 70.7119 375.025 68.4498C380.938 65.1888 386.888 62.0073 392.875 58.9051C394.53 57.8927 396.385 57.2463 398.315 57.01C401.465 56.8414 404.315 58.8257 406.915 60.7307C412.475 64.792 418.032 68.8533 423.585 72.9146C430.115 77.6968 435.365 82.5882 439.185 90.0097C443.115 86.289 446.005 81.9235 450.975 79.0958C462.385 72.6764 476.635 72.8749 488.505 78.4509C500.375 84.0269 509.865 94.5737 515.745 106.847C517.977 111.373 519.552 116.19 520.425 121.154C522.078 131.362 519.738 141.81 513.885 150.363C512.075 152.913 509.885 155.582 510.025 158.777C510.195 160.306 510.66 161.788 511.395 163.143C514.728 170.412 518.058 177.671 521.385 184.921Z" fill="#4983BE"/>
<path id="Vector_26" d="M457.812 186.806C458.935 186.482 459.963 185.897 460.812 185.099C461.626 184.057 462.184 182.841 462.442 181.547L465.202 171.784C465.708 170.271 465.994 168.694 466.052 167.101C466.052 165.047 465.242 163.133 464.792 161.089C463.962 157.408 464.222 153.499 463.182 149.877C461.482 143.924 456.042 139.43 450.182 139.122C448.532 139.033 446.782 139.221 445.322 138.398C444.572 137.981 443.952 137.316 443.202 136.89C441.292 135.798 438.942 136.463 436.892 137.247C427.332 140.918 417.892 147.833 415.302 158.271C414.895 159.712 414.77 161.218 414.932 162.706C415.272 165.216 416.782 167.399 417.242 169.899C417.702 172.399 417.092 174.86 417.702 177.261C417.758 177.605 417.931 177.921 418.192 178.154C418.581 178.35 419.025 178.409 419.452 178.323C421.762 178.323 423.202 180.962 423.912 183.283C424.622 185.605 425.352 188.344 427.482 189.306C428.368 189.611 429.295 189.788 430.232 189.832C432.912 190.189 435.402 191.439 438.002 192.193C441.722 193.265 443.662 192.282 446.792 190.616C450.192 188.84 454.242 188.115 457.812 186.806Z" fill="#C2D071"/>
</g>
</g>
<g id="blue-flower-3">
<path id="stem_9" d="M1307.44 735.23C1302.44 735.71 1283.02 740.84 1283.02 740.84C1291.86 741.89 1291.1 749.23 1291.1 749.23C1287.71 743.52 1278.46 746.67 1278.46 746.67L1276.96 766.9H1271.15L1272.56 745.97C1256.1 744.97 1241.99 727.85 1237.77 722.24C1244.03 728.08 1270.46 737.63 1271.38 737.96C1236.38 711.08 1237.12 675.96 1237.12 675.96C1273.7 705.16 1275.22 726.96 1274.97 732.31C1281.62 662.49 1282.97 629.64 1282.86 614.25C1282.78 602.13 1281.78 600.84 1281.78 600.84L1286.68 600.04V609.59L1286.74 611.59L1287.34 631.97L1286.48 659.48L1283.1 692.01L1279.22 739.31C1279.22 739.31 1279.54 736.16 1293.92 721.93C1309.81 706.21 1345.14 716.32 1345.14 716.32C1335.11 726.83 1312.45 734.77 1307.44 735.23Z" fill="#1F2E05"/>
<g id="Group 13">
<path id="Vector_27" d="M1225.16 485.31C1219.92 486.79 1215.7 490.87 1211.93 495.03C1207.62 499.8 1203.53 505.03 1201.31 511.19C1198.44 519.19 1198.96 528.19 1201.19 536.41C1201.75 538.934 1202.82 541.316 1204.33 543.41C1206.17 545.69 1208.81 547.01 1211.33 548.28L1232.01 558.54C1227.91 560.9 1223.56 563.54 1221.45 567.96C1218.77 573.63 1220.53 580.45 1222.34 586.51C1223.21 589.43 1224.12 592.43 1225.87 594.86C1229.99 600.58 1238.49 602.95 1239.67 610.05C1239.91 611.5 1239.83 613.05 1240.67 614.28C1241.51 615.51 1243.02 615.87 1244.41 616.15C1256.06 618.52 1268.41 620.25 1279.53 615.81C1290.65 611.37 1299.75 598.75 1296.94 586.43C1305.67 594.83 1317.38 599.423 1329.49 599.2C1336.49 599.01 1343.81 596.86 1348.4 591.2C1356.16 581.71 1353.11 567.32 1353.07 554.71C1353.07 549.48 1353.63 544.15 1352.42 539.08C1350.23 529.92 1341.69 522.98 1332.85 523.17C1332.18 523.276 1331.5 523.118 1330.94 522.73C1330.69 522.383 1330.52 521.984 1330.44 521.562C1330.36 521.14 1330.37 520.705 1330.48 520.29L1332.9 498.41C1333.27 496.309 1333.23 494.154 1332.77 492.07C1332.15 490.325 1331.23 488.704 1330.04 487.28C1323.04 477.89 1315.64 468.14 1305.31 463.45C1300.56 461.431 1295.51 460.221 1290.36 459.87C1285.79 459.45 1281.09 459.43 1276.75 461.01C1270.82 463.17 1266.19 468.08 1261.75 472.83C1257.31 477.58 1253.32 484.83 1247.01 485.89C1239.77 487.21 1232.54 483.45 1225.16 485.31Z" fill="#4983BE"/>
<path id="Vector_28" d="M1271.19 518.41C1268.52 519.56 1266.16 521.33 1264.31 523.573C1262.46 525.817 1261.16 528.469 1260.54 531.31C1259.44 536.969 1260.44 542.834 1263.35 547.81C1266.18 552.587 1270.06 556.659 1274.7 559.72C1275.69 560.498 1276.83 561.042 1278.06 561.31C1279.29 561.389 1280.51 561.205 1281.66 560.77C1285.11 559.77 1288.66 558.65 1291.48 556.3C1292.94 555.009 1294.26 553.568 1295.42 552C1297.45 549.618 1299.16 546.991 1300.53 544.18C1301.62 541.658 1302.2 538.947 1302.23 536.201C1302.27 533.455 1301.76 530.729 1300.74 528.18C1296.22 517.06 1281.11 514.43 1271.19 518.41Z" fill="#C2D071"/>
</g>
</g>
<g id="grass-1">
<path id="Vector_29" d="M41.9311 646.96C28.7011 695.54 21.2911 757.69 20.2311 766.9H11.6211C11.3611 761.31 7.90108 679.18 29.7011 630.53C34.4947 620.082 38.5057 609.292 41.7011 598.25C42.1811 596.51 42.6077 594.843 42.9811 593.25C45.0811 584.35 45.4811 578.17 45.2711 574.03C45.2087 572.247 44.9505 570.476 44.5011 568.75C45.188 570.738 45.7689 572.761 46.2411 574.81C47.568 580.648 48.3811 586.59 48.6711 592.57C48.7411 594.11 48.8011 595.73 48.8311 597.4C48.9911 610.11 47.4711 626.67 41.9311 646.96Z" fill="#1F2E05"/>
<path id="Vector_30" d="M120.879 584.84C120.699 586.22 120.499 587.65 120.279 589.09C117.279 608.72 110.059 633.96 93.1388 657.92C91.5122 660.18 89.9555 662.493 88.4688 664.86C86.7288 667.527 85.0622 670.24 83.4688 673C60.1488 712.83 51.2388 756 49.2588 766.9H32.4588C31.9988 756.03 29.8488 671.31 70.9288 625.64C72.4688 623.92 74.0688 622.27 75.7388 620.64C76.9788 619.45 78.1988 618.27 79.3788 617.11C88.6383 608.176 97.2438 598.588 105.129 588.42C106.329 586.86 107.429 585.35 108.459 583.9C122.049 564.73 121.939 555.38 121.829 553.99C122.601 564.278 122.283 574.619 120.879 584.84V584.84Z" fill="#1F2E05"/>
<path id="Vector_31" d="M524.378 655.06C524.378 655.06 499.818 664.91 475.758 706.78C472.758 712.04 469.758 717.78 466.758 724.11C460.373 737.958 455.025 752.26 450.758 766.9H433.238C440.668 731.45 452.558 707.25 465.308 690.71C468.101 687.101 471.106 683.661 474.308 680.41C499.238 655.07 524.378 655.06 524.378 655.06Z" fill="#1F2E05"/>
<path id="Vector_32" d="M721.04 766.9H710.22C697.51 681.62 671.05 659.97 670.09 659.2C671.33 659.4 711.29 666.89 721.04 766.9Z" fill="#1F2E05"/>
<path id="Vector_33" d="M757.381 662.31C742.521 710.31 741.861 749.9 742.481 766.91H729.641C730.531 743.39 734.531 675.28 751.821 639.6C772.941 596.02 779.611 574.01 779.611 574.01C779.611 574.01 777.301 597.86 757.381 662.31Z" fill="#1F2E05"/>
<path id="Vector_34" d="M765.44 766.9H747.82L756.09 750.9C780.89 701.53 774.5 651.31 774.5 651.31C787.28 691.67 771.99 746.7 765.44 766.9Z" fill="#1F2E05"/>
<path id="Vector_35" d="M1109.09 766.9H1092.53L1091.12 752.39C1090.48 746.342 1089.51 740.334 1088.22 734.39C1085.67 722.631 1081.99 711.147 1077.22 700.1C1066.57 675.39 1053.98 660.33 1053.22 659.42C1064.22 668.13 1073.44 680.29 1080.99 693.35C1086.21 702.469 1090.79 711.939 1094.7 721.69C1099.79 734.282 1104.07 747.188 1107.5 760.33C1108.28 763.41 1108.81 765.67 1109.09 766.9Z" fill="#1F2E05"/>
<path id="Vector_36" d="M1117.92 682.6C1114.34 722.22 1118.44 752.73 1121.07 766.9H1108.14C1107.93 764.94 1107.71 762.75 1107.48 760.33C1106.16 746.46 1104.62 725.55 1104.61 703.8C1104.61 684.8 1105.78 665.15 1109.3 649C1110.02 645.66 1110.84 642.47 1111.78 639.48C1126.31 592.92 1129.7 570.06 1129.7 570.06C1129.7 570.06 1130.5 586.18 1125.08 628.96C1123.9 638.32 1122.42 648.96 1120.56 660.96C1119.41 668.45 1118.55 675.67 1117.92 682.6Z" fill="#1F2E05"/>
<path id="Vector_37" d="M1147.06 766.9H1129.63L1137.22 748.51C1157.52 697.83 1147.66 649.17 1147.35 647.64C1164.35 688.94 1151.35 749.6 1147.06 766.9Z" fill="#1F2E05"/>
</g>
<g id="yellow-flower-1">
<path id="stem_10" d="M914.3 371.61V372.69C914.12 379.09 913.66 386.78 912.87 396.03C907.6 457.31 891.06 679.2 885.76 750.62C885.76 751.26 885.66 751.89 885.62 752.51C885.17 758.51 884.82 763.39 884.56 766.85C884.56 766.95 884.56 767.05 884.56 767.15C884.56 767.42 884.51 767.7 884.5 767.95H882.04C882.04 767.95 882.1 767.68 882.21 767.15H875C875 767.05 875 766.95 875 766.85C875.38 760.08 876.15 746.73 877.2 729.12C881.99 648.27 892.53 477.86 898.06 444.86C902.13 420.54 903.15 392.76 903.25 372.96V372.84C903.25 363.6 903.14 356.11 903 351.54C902.91 348.37 902.84 346.61 902.84 346.61L903.96 346.75C903.96 346.75 913.43 331.69 914.29 361.69C914.39 364.56 914.39 367.85 914.3 371.61Z" fill="#89A040"/>
<g id="leaves_3">
<path id="Vector_38" d="M894.889 767.18H809.619L809.419 766.9C754.679 692.73 792.869 485 792.869 485C792.869 485 847.159 654.43 877.219 730.77C880.359 738.77 883.219 745.72 885.759 751.36L885.969 751.82C889.679 760.08 892.599 765.43 894.459 766.9C894.59 767.011 894.734 767.106 894.889 767.18V767.18Z" fill="#1F2E05"/>
<path id="Vector_39" d="M1012.3 548.07C1007.09 559.557 1001.23 570.738 994.749 581.56C992.329 585.66 989.649 590.02 986.749 594.56C984.069 598.75 981.169 603.09 978.069 607.56C977.859 607.84 977.659 608.14 977.449 608.44C975.801 610.965 974.298 613.583 972.949 616.28C952.949 655.63 930.949 755.6 928.469 766.96L928.239 767.96H882.039C882.039 767.96 882.099 767.7 882.209 767.19C882.209 767.11 882.209 767.01 882.279 766.91C882.729 764.91 883.849 760.08 885.639 753.17C885.749 752.73 885.869 752.28 885.989 751.83C895.499 715.55 922.389 626.89 968.679 577.91C969.919 576.6 971.159 575.34 972.419 574.09C975.871 570.659 979.506 567.418 983.309 564.38C985.229 562.85 987.179 561.38 989.159 560.02C996.264 554.955 1004.06 550.931 1012.3 548.07V548.07Z" fill="#1F2E05"/>
</g>
<g id="yellow-flower">
<path id="Vector_40" d="M850.231 256.49C848.231 274.31 897.691 356.67 907.641 356.67C917.591 356.67 952.001 269.67 952.001 269.67C952.001 269.67 917.591 141.98 893.421 157.67C869.251 173.36 851.701 237.4 851.701 237.4L850.231 256.49Z" fill="#CCCC00"/>
<path id="Vector_41" d="M992.762 183.09C992.762 183.09 902.522 280.09 900.042 301.21C897.562 322.33 896.442 349.4 921.592 355.74C946.742 362.08 982.442 328.83 990.392 268.03C998.342 207.23 992.762 183.09 992.762 183.09Z" fill="#D8CF2C"/>
<path id="Vector_42" d="M901.122 279.36C901.122 279.36 892.542 293.66 902.552 296.51C912.562 299.36 902.552 277.41 902.552 277.41L901.122 279.36Z" fill="#1E0000"/>
<path id="Vector_43" d="M923.849 347.46C765.539 403.58 808.229 185.04 808.229 185.04C808.229 185.04 843.849 274.12 892.809 286.53C941.769 298.94 923.809 347.46 923.809 347.46H923.849Z" fill="#D8CF2C"/>
<path id="Vector_44" d="M838.229 323.76C839.63 323.634 841.039 323.884 842.311 324.483C843.584 325.083 844.674 326.01 845.469 327.17C844.204 323.258 841.848 319.789 838.679 317.17C837.329 316.07 835.679 314.87 835.539 313.17L843.109 317.91C840.939 310.27 832.109 306.01 829.539 298.46C835.924 304.673 843.027 310.101 850.699 314.63C848.681 311.336 846.932 307.885 845.469 304.31C847.269 305.11 848.319 307.11 849.469 308.8C851.641 311.985 854.737 314.427 858.339 315.8C858.004 311.844 856.465 308.085 853.929 305.03C856.716 305.647 859.21 307.195 860.999 309.42C862.549 311.32 863.539 313.61 864.869 315.67C867.096 319.162 870.26 321.959 873.999 323.74C873.256 321.525 872.813 319.222 872.679 316.89C875.239 317.99 876.369 321.14 878.129 323.44C880.319 326.33 883.619 327.96 886.619 329.85C891.278 332.812 895.411 336.53 898.849 340.85C900.115 342.397 901.158 344.114 901.949 345.95C902.246 346.5 902.342 347.137 902.219 347.75C902.057 348.131 901.781 348.452 901.429 348.67C898.679 350.67 894.979 350.67 891.499 350.59L884.789 350.47C883.053 350.548 881.322 350.227 879.729 349.53C874.702 347.643 869.732 345.547 864.819 343.24C862.441 342.215 860.186 340.923 858.099 339.39C854.849 336.86 852.339 333.24 848.819 331.21C845.299 329.18 840.409 327.13 838.229 323.76Z" fill="#1E0000"/>
<path id="Vector_45" d="M921.989 338.4C923.425 337.193 924.96 336.109 926.579 335.16C934.645 329.725 940.56 321.643 943.299 312.31C944.299 308.84 944.929 305.08 947.239 302.26C949.449 303.45 949.539 306.66 949.359 309.34C956.489 303.28 957.419 292.18 963.949 285.42C963.756 287.671 964.281 289.926 965.449 291.86C969.029 286.333 972.409 280.683 975.589 274.91C976.396 275.069 977.141 275.457 977.733 276.028C978.325 276.599 978.741 277.329 978.929 278.13C979.329 279.813 979.329 281.567 978.929 283.25C977.929 288.59 975.459 293.66 974.379 298.98C973.759 302.04 973.589 305.17 972.679 308.18C971.479 312.18 969.049 315.7 966.679 319.18L962.459 325.29C961.384 326.929 960.195 328.489 958.899 329.96C957.069 331.845 955.037 333.522 952.839 334.96C943.409 341.453 933.093 346.556 922.209 350.11C921.487 350.43 920.684 350.521 919.909 350.37C916.009 349.1 920.019 340.23 921.989 338.4Z" fill="#1E0000"/>
</g>
</g>
<g id="white-flower-4">
<g id="end">
<g id="end-white-flower-4">
<g id="stem_11">
<g id="stem_12">
<path d="M1367.93 328.89V161.89C1367.63 165.3 1367.26 168.94 1366.8 172.82C1366.03 178.86 1364.99 185.38 1363.6 192.26C1356.5 227.18 1360.77 277.02 1360.77 277.02C1360.77 277.02 1354.77 260.76 1340.77 248.69C1335.72 244.21 1329.86 240.741 1323.51 238.47C1306.1 232.43 1296.12 235.76 1291.35 238.76C1290.02 239.554 1288.83 240.568 1287.83 241.76L1287.84 241.754C1288.13 241.629 1290.68 240.528 1296.72 239.9C1301.67 239.44 1306.65 239.34 1311.62 239.6C1320.12 239.96 1331.39 249.27 1340.82 259.03C1351.06 269.65 1359.13 280.82 1359.13 281.7C1359.08 283.32 1356.11 283.17 1350.26 281.32C1348.67 280.779 1346.17 278.508 1343.01 275.638C1342.31 275.004 1341.58 274.34 1340.82 273.66C1336.39 269.7 1330.94 265.22 1325.04 262.8C1319.57 260.56 1313.7 260.1 1307.85 263.46C1296.98 269.693 1284.49 272.499 1272 271.51C1287.51 277.406 1288.48 277.353 1290.68 277.233C1291.19 277.206 1291.75 277.175 1292.57 277.21C1294.7 277.302 1297.23 275.916 1300.47 274.147C1303.92 272.259 1308.17 269.935 1313.57 268.51C1315.85 267.981 1318.23 268.103 1320.45 268.86C1327.21 270.86 1334.6 277.05 1340.78 282.35C1343.03 284.3 1345.17 286.14 1347.03 287.59C1355.7 294.36 1361.94 285.03 1361.94 285.03C1361.94 285.03 1364.38 301.14 1366.69 320.47C1366.77 320.68 1366.77 320.89 1366.77 321.1C1367.09 323.75 1367.49 326.34 1367.93 328.89Z" fill="#1F2E05"/>
<path d="M1366.46 629.67C1366.39 630.12 1366.31 630.57 1366.23 631.02C1366.16 631.406 1366.09 631.786 1366.01 632.166C1365.91 632.673 1365.81 633.18 1365.73 633.7C1365.58 634.61 1365.43 635.51 1365.27 636.43C1365.11 637.35 1364.96 638.26 1364.81 639.18C1364.48 641.293 1364.15 643.41 1363.81 645.53C1363.55 647.11 1363.3 648.69 1363.05 650.27C1362.79 651.9 1362.54 653.53 1362.29 655.16L1362.22 655.613C1362.04 656.74 1361.87 657.861 1361.7 658.99C1361.68 659.093 1361.66 659.196 1361.64 659.299C1361.59 659.556 1361.54 659.813 1361.54 660.07C1361.31 661.56 1361.08 663.06 1360.86 664.56L1360.8 664.99C1360.55 666.618 1360.31 668.256 1360.07 669.893L1360.07 669.9C1359.11 676.44 1358.19 682.95 1357.31 689.33C1357.16 690.488 1357.01 691.617 1356.85 692.735C1356.78 693.269 1356.71 693.8 1356.64 694.33C1356.28 696.97 1355.93 699.59 1355.59 702.16C1355.53 702.621 1355.47 703.082 1355.41 703.542C1355.35 703.939 1355.3 704.336 1355.25 704.73C1355.1 705.85 1354.96 706.96 1354.82 708.07C1354.67 709.195 1354.52 710.319 1354.38 711.433L1354.27 712.28C1354.25 712.397 1354.23 712.514 1354.22 712.63C1354.17 712.894 1354.13 713.157 1354.13 713.42C1353.98 714.53 1353.84 715.62 1353.71 716.71C1353.32 719.703 1352.96 722.613 1352.61 725.44C1352.4 727.17 1352.2 728.82 1352 730.44L1351.95 730.871C1351.84 731.694 1351.74 732.509 1351.65 733.31C1351.47 734.76 1351.3 736.18 1351.14 737.56C1351.1 737.882 1351.07 738.183 1351.03 738.479C1351 738.69 1350.97 738.898 1350.95 739.11C1350.58 742.01 1350.25 744.77 1349.95 747.37C1349.87 747.996 1349.8 748.607 1349.73 749.209L1349.7 749.48C1349.62 750.138 1349.55 750.785 1349.48 751.42C1349.3 752.975 1349.13 754.46 1348.97 755.88C1348.9 756.456 1348.84 757.017 1348.78 757.569L1348.7 758.245C1348.57 759.434 1348.44 760.559 1348.32 761.62C1348.27 762.127 1348.22 762.62 1348.16 763.094C1348.14 763.292 1348.12 763.488 1348.1 763.68C1348 764.56 1347.91 765.38 1347.83 766.14C1347.81 766.263 1347.8 766.384 1347.78 766.503C1347.74 766.782 1347.7 767.051 1347.7 767.31H1360.03C1360.04 767.205 1360.05 767.101 1360.06 766.996C1360.08 766.719 1360.11 766.437 1360.11 766.14V765.73C1361.31 748.74 1364.03 709.44 1364.45 697.03C1364.81 692.329 1365.56 687.666 1366.7 683.09V628.32C1366.62 628.77 1366.54 629.22 1366.46 629.67Z" fill="#1F2E05"/>
</g>
<path id="bud_2" d="M1366.39 102.1C1366.51 102.55 1366.64 103 1366.77 103.45V127.45C1366.69 127.345 1366.61 127.245 1366.53 127.15C1366.36 126.95 1366.19 126.76 1366 126.58C1365.59 126.195 1365.14 125.86 1364.66 125.58C1364.53 125.492 1364.4 125.412 1364.27 125.34H1364.17C1363.98 125.24 1363.78 125.14 1363.57 125.05C1363.34 124.946 1363.1 124.856 1362.86 124.78C1362.61 124.689 1362.36 124.615 1362.1 124.56C1360.63 124.231 1359.12 124.163 1357.63 124.36C1356.9 124.446 1356.18 124.57 1355.47 124.73C1354.99 124.84 1354.53 124.96 1354.07 125.09C1353.61 125.22 1353.42 125.28 1353.07 125.39C1352.59 125.55 1352.13 125.72 1351.68 125.9L1350.95 126.21C1350.77 126.283 1350.59 126.363 1350.41 126.45C1350.13 126.57 1349.85 126.71 1349.57 126.86C1349.29 127.01 1349.11 127.09 1348.89 127.22C1348.67 127.35 1348.42 127.47 1348.19 127.61C1347.96 127.75 1347.76 127.86 1347.55 127.99L1346.71 128.52C1346.41 128.72 1346.12 128.92 1345.84 129.13C1345.25 129.54 1344.7 129.97 1344.17 130.41C1343.91 130.62 1343.65 130.84 1343.41 131.06L1343.03 131.4C1342.84 131.57 1342.65 131.74 1342.47 131.92C1341.85 132.5 1341.29 133.08 1340.78 133.64C1340.01 134.479 1339.28 135.357 1338.6 136.27L1338.34 136.63C1337.58 137.63 1337.19 138.34 1337.19 138.34C1337.19 138.34 1337.19 138.22 1337.19 137.99C1337.19 137.93 1337.19 137.87 1337.19 137.8C1337.19 137.73 1337.19 137.66 1337.19 137.58C1337.18 137.493 1337.18 137.406 1337.19 137.32C1337.19 137.133 1337.21 136.923 1337.25 136.69C1337.25 136.48 1337.25 136.25 1337.33 136.01C1337.39 135.46 1337.48 134.84 1337.58 134.16C1337.67 133.67 1337.76 133.16 1337.87 132.63C1337.94 132.27 1338.03 131.89 1338.11 131.52C1338.19 131.15 1338.3 130.75 1338.41 130.36C1338.52 129.97 1338.6 129.66 1338.71 129.3C1338.7 129.26 1338.7 129.22 1338.71 129.18C1338.95 128.41 1339.23 127.62 1339.54 126.84C1339.58 126.762 1339.61 126.682 1339.64 126.6C1339.78 126.27 1339.92 125.95 1340.08 125.6C1340.27 125.22 1340.46 124.83 1340.67 124.46C1340.88 124.09 1341.05 123.78 1341.26 123.46C1341.47 123.14 1341.84 122.6 1342.15 122.19C1342.88 121.222 1343.75 120.366 1344.73 119.65C1345.76 118.905 1346.91 118.356 1348.14 118.03H1348.04H1347.89H1347.76H1347.5H1347.27H1347.07C1346.87 118.03 1346.63 117.91 1346.38 117.82L1345.87 117.63L1345.46 117.45L1345.13 117.29L1344.74 117.09C1344.5 116.96 1344.24 116.81 1343.99 116.64C1343.85 116.557 1343.72 116.467 1343.59 116.37L1343.31 116.17C1343.15 116.06 1342.99 115.93 1342.82 115.79L1342.48 115.51L1342.34 115.39C1342.2 115.27 1342.06 115.14 1341.92 115C1341.77 114.868 1341.62 114.727 1341.49 114.58C1341.25 114.33 1341.01 114.06 1340.77 113.78C1340.53 113.5 1340.23 113.12 1339.96 112.78C1339.89 112.691 1339.82 112.597 1339.76 112.5C1339.15 111.649 1338.62 110.753 1338.15 109.82C1333.97 101.63 1328.06 101.37 1328.06 101.37C1328.06 101.37 1328.59 101.37 1329.51 101.37H1330.25C1330.64 101.37 1331.06 101.42 1331.53 101.47L1332.07 101.53C1332.51 101.53 1332.98 101.64 1333.48 101.72L1334.12 101.82L1334.94 101.98L1335.55 102.11L1335.95 102.2L1336.41 102.31C1336.56 102.34 1336.72 102.381 1336.87 102.43L1337.81 102.69L1338.71 102.97H1338.84L1339.77 103.3C1340.1 103.42 1340.44 103.55 1340.77 103.69L1341.38 103.95H1341.48H1341.55L1342.55 104.4L1343.22 104.74L1343.8 105.05C1344.04 105.18 1344.28 105.31 1344.51 105.46L1344.9 105.69L1345.26 105.92C1345.39 105.99 1345.51 106.071 1345.63 106.16C1346.2 106.529 1346.75 106.926 1347.28 107.35C1347.54 107.55 1347.79 107.75 1348.04 107.97C1348.29 108.19 1348.78 108.61 1349.14 108.97C1349.31 109.13 1349.47 109.29 1349.63 109.46L1349.74 109.58L1349.97 109.81C1350 109.834 1350.02 109.861 1350.05 109.89C1350.2 110.04 1350.34 110.2 1350.48 110.36C1350.62 110.52 1350.66 110.55 1350.74 110.65C1350.82 110.75 1351.09 111.06 1351.25 111.27L1351.51 111.6C1351.74 111.88 1351.95 112.17 1352.16 112.46C1352.37 112.75 1352.65 113.16 1352.88 113.52C1352.88 113.52 1354.31 115.18 1355.79 115.25C1357.27 115.32 1354.42 111.99 1354.63 105.6C1354.63 105.6 1358.86 112.18 1361.82 112.31C1361.82 112.31 1359.82 84.9899 1364.37 80.3799C1364.37 80.3799 1364.37 80.5199 1364.37 80.7899C1364.37 80.7899 1364.37 80.8799 1364.37 80.9299C1364.37 80.9799 1364.37 81.0399 1364.37 81.0999C1364.37 81.1599 1364.37 81.3299 1364.37 81.4699V81.5299C1364.37 81.6699 1364.37 81.8199 1364.37 81.9899C1364.37 82.1599 1364.37 82.3599 1364.37 82.5699C1364.37 82.7799 1364.37 83.2799 1364.37 83.6899C1364.37 84.2799 1364.37 84.9199 1364.37 85.6299C1364.37 85.8499 1364.37 86.0799 1364.37 86.3199C1364.37 86.7999 1364.37 87.3199 1364.37 87.8099C1364.37 88.2999 1364.43 89.0799 1364.48 89.8099L1364.54 90.6699C1364.54 91.1199 1364.62 91.5799 1364.67 92.0499C1364.72 92.5199 1364.75 92.8299 1364.8 93.2299C1364.9 94.0599 1365.01 94.9199 1365.15 95.7899C1365.15 96.0999 1365.25 96.4099 1365.31 96.7199C1365.45 97.5499 1365.61 98.3999 1365.8 99.2599C1365.85 99.5199 1365.91 99.7799 1365.97 100.04C1366.03 100.3 1366.11 100.67 1366.19 101.04C1366.27 101.41 1366.42 101.96 1366.54 102.42C1366.38 102.07 1366.39 102.08 1366.39 102.1Z" fill="#1F2E05"/>
<path id="flower_2" d="M1366.77 1.54V103.45C1366.64 103 1366.51 102.55 1366.39 102.1C1366.27 101.64 1366.15 101.18 1366.04 100.72C1365.93 100.26 1365.89 100.09 1365.82 99.72C1365.75 99.35 1365.7 99.2 1365.65 98.94C1365.46 98.08 1365.3 97.23 1365.16 96.4C1365.1 96.09 1365.05 95.78 1365 95.47C1364.86 94.6 1364.75 93.74 1364.65 92.91C1364.65 92.51 1364.56 92.12 1364.52 91.73C1364.48 91.34 1364.43 90.8 1364.39 90.35L1364.33 89.49C1364.33 88.81 1364.25 88.16 1364.22 87.49C1364.19 86.82 1364.22 86.49 1364.22 86C1364.22 85.76 1364.22 85.53 1364.22 85.31C1364.22 84.6 1364.22 83.95 1364.22 83.37C1364.22 82.96 1364.22 82.59 1364.22 82.25C1364.22 81.91 1364.22 81.85 1364.22 81.67C1364.22 81.49 1364.22 81.35 1364.22 81.21V81.15C1364.22 81.01 1364.22 80.88 1364.22 80.78C1364.22 80.68 1364.22 80.67 1364.22 80.61C1364.22 80.55 1364.22 80.51 1364.22 80.47C1364.22 80.2 1364.22 80.06 1364.22 80.06C1359.77 84.73 1361.77 112.02 1361.77 112.02C1358.77 111.89 1354.58 105.31 1354.58 105.31C1354.37 111.7 1357.22 115.03 1355.74 114.96C1354.26 114.89 1352.83 113.23 1352.83 113.23C1352.6 112.87 1352.36 112.51 1352.11 112.17C1351.86 111.83 1351.69 111.59 1351.46 111.31L1351.2 110.98C1351.04 110.77 1350.86 110.56 1350.69 110.36C1350.52 110.16 1350.52 110.17 1350.43 110.07C1350.34 109.97 1350.15 109.75 1350 109.6C1349.98 109.571 1349.95 109.544 1349.92 109.52C1349.85 109.436 1349.77 109.359 1349.69 109.29L1349.58 109.17C1349.42 109 1349.26 108.84 1349.09 108.68C1348.73 108.33 1348.36 108 1347.99 107.68C1347.62 107.36 1347.49 107.26 1347.23 107.06C1346.7 106.636 1346.15 106.239 1345.58 105.87C1345.46 105.781 1345.34 105.701 1345.21 105.63L1344.85 105.4L1344.46 105.17C1344.23 105.02 1343.99 104.89 1343.75 104.76L1343.17 104.45L1342.5 104.11L1341.5 103.66H1341.43H1341.33C1341.12 103.56 1340.92 103.48 1340.72 103.4C1340.52 103.32 1340.05 103.13 1339.72 103.01L1338.79 102.68H1338.66L1337.76 102.4C1337.44 102.3 1337.13 102.22 1336.82 102.14C1336.67 102.091 1336.52 102.051 1336.36 102.02L1335.9 101.91L1335.5 101.82L1334.89 101.69L1334.07 101.53L1333.43 101.43C1332.93 101.35 1332.43 101.29 1332.02 101.24L1331.48 101.18C1331.01 101.18 1330.59 101.1 1330.2 101.08H1329.46C1328.54 101.08 1328.01 101.08 1328.01 101.08C1328.01 101.08 1333.92 101.34 1338.1 109.53C1338.57 110.464 1339.1 111.36 1339.71 112.21C1339.77 112.307 1339.84 112.401 1339.91 112.49C1340.18 112.85 1340.45 113.183 1340.72 113.49C1340.96 113.77 1341.2 114.04 1341.44 114.29C1341.58 114.438 1341.72 114.578 1341.87 114.71C1342.01 114.85 1342.15 114.98 1342.29 115.1L1342.43 115.22C1342.55 115.32 1342.66 115.42 1342.77 115.5C1342.88 115.58 1343.1 115.77 1343.26 115.88L1343.54 116.08C1343.67 116.177 1343.8 116.267 1343.94 116.35C1344.19 116.52 1344.45 116.67 1344.69 116.8L1345.08 117L1345.41 117.16L1345.82 117.34L1346.33 117.53C1346.58 117.62 1346.82 117.69 1347.02 117.74H1347.22H1347.45H1347.71H1347.84H1347.99H1348.09C1346.86 118.066 1345.71 118.615 1344.68 119.36C1343.7 120.076 1342.83 120.932 1342.1 121.9C1341.61 121.9 1341.1 121.79 1340.62 121.72C1340.14 121.65 1339.37 121.57 1338.74 121.47L1336.86 121.19L1334.98 120.88C1334.27 120.77 1333.56 120.64 1332.85 120.5L1331.23 120.18L1329.36 119.79L1327.5 119.38C1326.88 119.24 1326.26 119.1 1325.64 118.94C1324.4 118.64 1323.17 118.33 1321.94 118C1321.15 117.8 1320.37 117.58 1319.59 117.36L1318.28 116.99C1315.85 116.29 1313.45 115.553 1311.08 114.78C1304.75 112.761 1298.59 110.236 1292.66 107.23C1287.09 104.38 1281.06 100.03 1279.66 92.3L1286.6 90.12C1285.41 83.4237 1283.37 76.9052 1280.54 70.72C1288.08 68.35 1296.41 71.02 1302.31 77.72C1304.55 73.72 1310.04 74.02 1311.31 69.3C1312.15 66.18 1310.42 62.8 1308.31 61C1306.2 59.2 1303.73 58.36 1301.71 56.44C1297.54 52.5 1296.22 44.75 1297.18 38.06C1298.14 31.37 1300.95 25.44 1303.71 19.7C1309.77 21.02 1316.29 22.26 1321.8 18.7C1324.12 17.18 1327.23 15.03 1328.87 17.7C1330.2 19.84 1329.34 23.86 1331.17 25.18C1331.78 25.5221 1332.48 25.6424 1333.17 25.52C1333.79 25.52 1334.42 25.42 1335.05 25.35C1335.48 25.3 1335.91 25.24 1336.33 25.17L1336.67 25.11H1336.81C1337.19 25.04 1337.57 24.96 1337.94 24.86C1338.59 24.7033 1339.23 24.496 1339.85 24.24C1340.08 24.15 1340.31 24.05 1340.53 23.94H1340.62L1340.73 23.88C1340.86 23.8199 1340.99 23.7497 1341.11 23.67C1341.49 23.4651 1341.86 23.231 1342.2 22.97C1342.36 22.85 1342.51 22.72 1342.66 22.59C1342.83 22.4505 1342.99 22.3002 1343.14 22.14C1343.28 22.0098 1343.41 21.8694 1343.53 21.72C1343.72 21.5135 1343.9 21.2929 1344.06 21.06C1344.12 20.9874 1344.17 20.9105 1344.22 20.83C1344.33 20.6753 1344.43 20.5151 1344.53 20.35C1344.66 20.1413 1344.78 19.9242 1344.89 19.7C1346.59 16.28 1346.45 11.79 1347.63 8C1348.83 4.45784 1351.03 1.33463 1353.95 -1H1362.77C1363.27 -0.149905 1363.95 0.577817 1364.77 1.13C1365.38 1.46124 1366.08 1.60391 1366.77 1.54V1.54Z" fill="#F9EBDF"/>
</g>
</g>
</g>
</g>
</g>
<defs>
<clipPath id="clip0_101_2">
<rect width="1366" height="760" fill="white"/>
</clipPath>
</defs>
</svg>
