<svg width="1152" height="700" viewBox="0 0 1152 700" fill="none" xmlns="http://www.w3.org/2000/svg">
<g id="preloader">
<rect width="1152" height="700" fill="white"/>
<rect id="bg" width="1152" height="700" fill="#293241"/>
<g id="container">
<g id="ball-jump">
<path id="path-1" d="M432.355 360.355C432.355 316.725 467.725 281.355 511.355 281.355C554.986 281.355 590.355 316.725 590.355 360.355" stroke="#3D5A80"/>
<path id="path-2" d="M511.355 360.355C511.355 316.725 546.725 281.355 590.355 281.355C633.986 281.355 669.355 316.725 669.355 360.355" stroke="#98C1D9"/>
<path id="path-3" d="M590.355 361.355C590.355 317.725 625.725 282.355 669.355 282.355C712.986 282.355 748.355 317.725 748.355 361.355" stroke="#E0FBFC"/>
<circle id="ball-1" cx="432.355" cy="360.355" r="24" fill="#3D5A80"/>
<path id="star" d="M432.855 336.355L438.131 352.593H455.205L441.392 362.629L446.668 378.867L432.855 368.832L419.042 378.867L424.318 362.629L410.506 352.593H427.579L432.855 336.355Z" fill="#EE6C4D"/>
<circle id="ball-2" cx="511.355" cy="360.355" r="24" fill="#98C1D9"/>
<path id="star-2" d="M600.711 335.355L590.355 325L580 335.355H565.355V350L555 360.355L565.355 370.711V385.355H580L590.355 395.711L600.711 385.355H615.355V370.711L625.711 360.355L615.355 350V335.355H600.711Z" fill="#EE6C4D"/>
<circle id="ball-3" cx="590.355" cy="360.355" r="24" fill="#E0FBFC"/>
</g>
<g id="progress-bar">
<rect id="fill" x="422" y="430" width="345" height="11" fill="#EE6C4D"/>
<rect id="fill_2" x="422" y="430" width="345" height="11" fill="#EE6C4D"/>
<rect id="outline" x="423" y="431" width="343" height="11" stroke="white" stroke-width="2"/>
</g>
</g>
<path id="line-1" d="M236 74H816" stroke="white" stroke-width="10"/>
<line id="line-2" x1="817" y1="132" x2="236" y2="132" stroke="#EE6C4D" stroke-width="10"/>
</g>
</svg>
