<svg width="1440" height="900" viewBox="0 0 1440 900" fill="none" xmlns="http://www.w3.org/2000/svg">
<g id="robot">
<rect width="1440" height="900" fill="white"/>
<path id="shadow" d="M659.841 832C750.585 832 824.148 820.136 824.148 805.501C824.148 790.866 750.585 779.002 659.841 779.002C569.097 779.002 495.534 790.866 495.534 805.501C495.534 820.136 569.097 832 659.841 832Z" fill="#C7ECE8"/>
<g id="leg-left">
<path id="Vector" d="M620.309 633.433H590.483V786.563H620.309V633.433Z" fill="#B74964"/>
<path id="Vector_2" d="M645.158 793.099C645.167 796.673 643.768 800.107 641.263 802.654C638.758 805.201 635.35 806.656 631.78 806.702H579.117C575.529 806.683 572.094 805.241 569.566 802.691C567.039 800.141 565.624 796.691 565.634 793.099V793.099C565.624 791.319 565.966 789.555 566.639 787.907C567.312 786.259 568.303 784.761 569.556 783.497C570.808 782.234 572.298 781.23 573.938 780.543C575.579 779.857 577.339 779.501 579.117 779.496H631.78C633.558 779.501 635.318 779.857 636.959 780.543C638.6 781.23 640.089 782.234 641.342 783.497C642.594 784.761 643.585 786.259 644.258 787.907C644.931 789.555 645.273 791.319 645.264 793.099H645.158Z" fill="#E6AE55"/>
<path id="Vector_3" d="M624.721 714.485C624.721 719.361 616.002 723.318 605.237 723.318C594.471 723.318 585.718 719.361 585.718 714.485C585.718 709.609 594.436 705.652 605.237 705.652C616.038 705.652 624.721 709.68 624.721 714.485Z" fill="black"/>
</g>
<g id="leg-right">
<path id="Vector_4" d="M732.552 633.433H702.727V786.563H732.552V633.433Z" fill="#B74964"/>
<path id="Vector_5" d="M757.366 793.099C757.376 796.691 755.961 800.141 753.434 802.691C750.906 805.241 747.471 806.683 743.883 806.702H691.326C687.737 806.683 684.302 805.241 681.775 802.691C679.247 800.141 677.833 796.691 677.842 793.099V793.099C677.833 791.319 678.175 789.555 678.848 787.907C679.521 786.259 680.512 784.761 681.764 783.497C683.017 782.234 684.506 781.23 686.147 780.543C687.787 779.857 689.547 779.501 691.326 779.496H743.883C745.661 779.501 747.421 779.857 749.062 780.543C750.702 781.23 752.192 782.234 753.444 783.497C754.697 784.761 755.688 786.259 756.361 787.907C757.034 789.555 757.375 791.319 757.366 793.099V793.099Z" fill="#E6AE55"/>
<path id="Vector_6" d="M736.894 714.485C736.894 719.361 728.176 723.318 717.41 723.318C706.645 723.318 697.891 719.361 697.891 714.485C697.891 709.609 706.645 705.652 717.41 705.652C728.176 705.652 736.894 709.68 736.894 714.485Z" fill="black"/>
</g>
<g id="arm-left">
<path id="Vector_7" d="M446.259 616.085C446.259 612.628 446.939 609.205 448.261 606.011C449.582 602.818 451.519 599.916 453.961 597.472C456.403 595.027 459.302 593.089 462.492 591.766C465.683 590.443 469.102 589.762 472.555 589.762C476.009 589.762 479.428 590.443 482.619 591.766C485.809 593.089 488.708 595.027 491.15 597.472C493.592 599.916 495.529 602.818 496.85 606.011C498.172 609.205 498.852 612.628 498.852 616.085" stroke="black" stroke-width="2.99" stroke-miterlimit="10"/>
<path id="Vector_8" d="M520.736 414.514C514.165 414.051 507.57 414.937 501.354 417.119C495.139 419.3 489.434 422.73 484.591 427.198C475.238 435.784 469.59 448.009 465.814 459.916C457.801 485.426 457.166 513.338 457.342 539.873C457.342 551.674 457.942 563.475 457.942 575.205C457.942 578.954 459.43 582.548 462.078 585.199C464.725 587.849 468.317 589.338 472.061 589.338C475.806 589.338 479.397 587.849 482.045 585.199C484.692 582.548 486.18 578.954 486.18 575.205C486.18 553.37 485.015 531.605 486.18 509.77C486.533 503.375 487.274 497.086 487.874 490.726C488.086 488.641 487.345 494.259 487.874 491.291C487.874 490.69 487.874 490.09 488.156 489.489C488.368 488.005 488.615 486.521 488.862 485.037C489.427 481.822 490.063 478.677 490.804 475.498C491.64 470.015 493.332 464.697 495.816 459.739C493.345 463.273 495.816 460.057 496.31 458.891C496.804 457.725 497.44 456.63 498.04 455.57C498.64 454.51 499.275 453.45 499.946 452.426C500.263 451.931 500.616 451.472 500.934 450.942C502.699 448.292 498.922 453.168 500.652 451.295C502.381 449.422 504.181 447.762 505.876 445.96C507.57 444.158 502.911 447.868 505.134 446.525C505.699 446.207 506.229 445.783 506.793 445.43C507.358 445.077 509.935 444.229 510.323 443.557C510.323 443.557 506.793 444.794 508.805 444.193L510.747 443.522C512.088 443.098 513.464 442.886 514.806 442.533C517.347 441.897 511.735 442.745 513.57 442.533H516.182C517.746 442.444 519.313 442.444 520.877 442.533C524.621 442.533 528.212 441.044 530.86 438.393C533.508 435.743 534.996 432.148 534.996 428.4C534.915 424.677 533.401 421.129 530.771 418.496C528.14 415.863 524.596 414.348 520.877 414.267L520.736 414.514Z" fill="black"/>
<path id="Vector_9" d="M496.063 579.869C496.073 581.197 495.819 582.514 495.318 583.744C494.816 584.974 494.077 586.093 493.142 587.035C492.207 587.978 491.095 588.726 489.87 589.236C488.644 589.747 487.331 590.009 486.004 590.009H459.107C457.782 590.005 456.47 589.739 455.247 589.227C454.024 588.715 452.914 587.966 451.979 587.025C451.045 586.083 450.306 584.967 449.803 583.739C449.3 582.511 449.043 581.196 449.048 579.869V579.869C449.034 578.534 449.283 577.21 449.782 575.972C450.28 574.734 451.018 573.607 451.952 572.655C452.887 571.703 454 570.945 455.228 570.425C456.456 569.905 457.774 569.632 459.107 569.623H486.004C487.332 569.627 488.647 569.894 489.872 570.409C491.098 570.923 492.209 571.674 493.144 572.62C494.079 573.565 494.818 574.686 495.318 575.918C495.819 577.15 496.073 578.468 496.063 579.798V579.869Z" fill="#D15741"/>
</g>
<g id="arm-right">
<path id="Vector_10" d="M876.705 616.085C876.705 609.103 873.935 602.408 869.003 597.472C864.072 592.535 857.383 589.762 850.409 589.762C843.435 589.762 836.747 592.535 831.815 597.472C826.884 602.408 824.113 609.103 824.113 616.085" stroke="black" stroke-width="2.99" stroke-miterlimit="10"/>
<path id="Vector_11" d="M802.229 442.709C804.792 442.847 807.361 442.847 809.924 442.709C809.394 443.487 806.182 441.932 808.653 442.709L810.383 443.098C811.724 443.416 812.995 443.911 814.301 444.299C815.607 444.688 813.63 444.935 812.818 443.663C812.995 443.981 814.23 444.37 814.583 444.547C815.465 445.006 816.277 445.571 817.16 446.066C820.478 448.08 815.501 444.335 817.477 446.278C818.36 447.161 819.313 447.938 820.16 448.822C821.007 449.705 821.678 450.553 822.454 451.401C824.184 453.309 820.795 448.963 821.748 450.482C822.031 450.977 822.419 451.472 822.737 451.931C824.246 454.193 825.602 456.554 826.796 458.997C827.113 459.633 828.596 463.167 827.678 460.799C826.76 458.432 828.172 462.142 828.419 462.813C829.478 465.64 830.396 468.537 831.208 471.47C832.718 477.287 833.897 483.185 834.738 489.136L835.055 491.397C835.443 493.906 835.055 490.62 835.055 490.372C835.024 491.92 835.202 493.465 835.585 494.966C835.938 498.499 836.255 501.785 836.502 505.212C837.385 517.614 837.561 529.945 837.42 542.488C837.42 553.441 836.855 564.358 836.855 575.311C836.855 579.059 838.343 582.654 840.991 585.305C843.638 587.955 847.23 589.444 850.974 589.444C854.719 589.444 858.31 587.955 860.958 585.305C863.605 582.654 865.093 579.059 865.093 575.311C865.093 551.921 866.399 528.567 864.705 505.212C862.869 479.419 859.022 449.917 841.02 429.884C836.127 424.556 830.091 420.409 823.366 417.753C816.641 415.097 809.402 414.002 802.194 414.549C798.469 414.613 794.915 416.122 792.281 418.759C789.646 421.396 788.138 424.954 788.075 428.682C788.393 435.749 794.287 443.31 802.194 442.815L802.229 442.709Z" fill="black"/>
<path id="Vector_12" d="M826.902 579.869C826.897 581.199 827.155 582.517 827.66 583.747C828.165 584.977 828.908 586.095 829.846 587.037C830.784 587.979 831.898 588.727 833.125 589.237C834.352 589.747 835.668 590.009 836.997 590.009H863.858C865.186 590.009 866.502 589.747 867.729 589.237C868.956 588.727 870.07 587.979 871.008 587.037C871.946 586.095 872.689 584.977 873.194 583.747C873.699 582.517 873.957 581.199 873.953 579.869V579.869C873.957 578.537 873.7 577.218 873.195 575.986C872.69 574.754 871.948 573.633 871.01 572.688C870.073 571.743 868.959 570.993 867.732 570.479C866.504 569.965 865.188 569.698 863.858 569.693H836.997C835.666 569.698 834.35 569.965 833.123 570.479C831.895 570.993 830.781 571.743 829.844 572.688C828.906 573.633 828.164 574.754 827.659 575.986C827.154 577.218 826.897 578.537 826.902 579.869V579.869Z" fill="#D15741"/>
</g>
<g id="head">
<path id="neck" d="M684.231 403.137C684.25 409.194 681.867 415.01 677.605 419.31C673.343 423.609 667.551 426.04 661.5 426.068V426.068C655.462 426.021 649.688 423.582 645.441 419.285C641.194 414.988 638.821 409.182 638.839 403.137V340.175C638.83 334.128 641.219 328.324 645.481 324.038C649.742 319.752 655.529 317.334 661.571 317.315V317.315C667.612 317.334 673.399 319.752 677.661 324.038C681.923 328.324 684.311 334.128 684.302 340.175L684.231 403.137Z" fill="black"/>
<g id="ear-left">
<path id="Vector_13" d="M551.938 260.536C551.943 261.56 551.745 262.574 551.357 263.522C550.969 264.469 550.398 265.33 549.676 266.055C548.955 266.781 548.097 267.357 547.153 267.75C546.208 268.142 545.196 268.345 544.173 268.345H533.301C532.282 268.34 531.273 268.134 530.332 267.739C529.392 267.344 528.539 266.768 527.821 266.043C527.103 265.318 526.535 264.458 526.149 263.513C525.763 262.569 525.567 261.557 525.571 260.536V260.536C525.567 259.515 525.763 258.504 526.149 257.559C526.535 256.614 527.103 255.754 527.821 255.029C528.539 254.304 529.392 253.728 530.332 253.333C531.273 252.938 532.282 252.732 533.301 252.728H544.173C545.196 252.728 546.208 252.93 547.153 253.323C548.097 253.716 548.955 254.291 549.676 255.017C550.398 255.742 550.969 256.604 551.357 257.551C551.745 258.498 551.943 259.512 551.938 260.536Z" fill="black"/>
<path id="Vector_14" d="M562.492 301.098C562.501 302.611 562.212 304.112 561.639 305.514C561.067 306.915 560.223 308.189 559.157 309.263C558.091 310.337 556.823 311.189 555.427 311.77C554.031 312.352 552.533 312.651 551.021 312.651V312.651C549.511 312.647 548.018 312.344 546.625 311.76C545.233 311.177 543.969 310.324 542.907 309.25C541.844 308.177 541.004 306.904 540.434 305.505C539.864 304.106 539.575 302.609 539.584 301.098V220.116C539.575 217.067 540.774 214.139 542.917 211.973C545.061 209.808 547.975 208.581 551.021 208.562V208.562C552.532 208.567 554.027 208.87 555.421 209.453C556.816 210.036 558.082 210.888 559.147 211.961C560.212 213.034 561.056 214.306 561.63 215.705C562.204 217.105 562.497 218.603 562.492 220.116V301.098Z" fill="#B74964"/>
</g>
<g id="ear-right">
<path id="Vector_15" d="M797.429 260.536C797.429 262.601 796.612 264.582 795.156 266.045C793.701 267.508 791.726 268.335 789.663 268.345H778.792C777.772 268.34 776.763 268.134 775.823 267.739C774.883 267.344 774.029 266.768 773.311 266.043C772.593 265.318 772.025 264.458 771.639 263.513C771.253 262.569 771.057 261.557 771.062 260.536V260.536C771.057 259.515 771.253 258.504 771.639 257.559C772.025 256.614 772.593 255.754 773.311 255.029C774.029 254.304 774.883 253.728 775.823 253.333C776.763 252.938 777.772 252.732 778.792 252.728H789.663C791.726 252.737 793.701 253.564 795.156 255.027C796.612 256.491 797.429 258.471 797.429 260.536Z" fill="black"/>
<path id="Vector_16" d="M783.557 301.098C783.566 302.609 783.278 304.106 782.707 305.505C782.137 306.904 781.297 308.177 780.235 309.25C779.172 310.324 777.909 311.177 776.516 311.76C775.124 312.344 773.63 312.647 772.121 312.651V312.651C770.596 312.67 769.084 312.385 767.671 311.811C766.258 311.238 764.974 310.389 763.892 309.314C762.811 308.238 761.955 306.957 761.374 305.547C760.793 304.136 760.499 302.623 760.508 301.098V220.116C760.503 218.603 760.796 217.105 761.37 215.705C761.944 214.306 762.788 213.034 763.853 211.961C764.919 210.888 766.184 210.036 767.579 209.453C768.973 208.87 770.468 208.567 771.98 208.562V208.562C773.5 208.553 775.006 208.845 776.413 209.422C777.819 209.999 779.098 210.849 780.174 211.923C781.251 212.998 782.104 214.275 782.685 215.681C783.265 217.087 783.562 218.595 783.557 220.116V301.098Z" fill="#B74964"/>
</g>
<g id="hari">
<path id="Vector_17" d="M667.077 168.46C667.082 169.212 666.939 169.957 666.655 170.653C666.372 171.35 665.955 171.983 665.427 172.518C664.9 173.053 664.272 173.478 663.58 173.77C662.888 174.062 662.145 174.215 661.394 174.219V174.219C660.643 174.215 659.901 174.062 659.209 173.77C658.517 173.478 657.889 173.053 657.361 172.518C656.834 171.983 656.416 171.35 656.133 170.653C655.85 169.957 655.707 169.212 655.712 168.46V89.7754C655.707 89.0254 655.85 88.2819 656.134 87.5876C656.417 86.8934 656.835 86.2621 657.363 85.7301C657.892 85.1982 658.52 84.776 659.211 84.4879C659.903 84.1998 660.645 84.0515 661.394 84.0515V84.0515C662.144 84.0515 662.885 84.1998 663.577 84.4879C664.269 84.776 664.897 85.1982 665.425 85.7301C665.953 86.2621 666.371 86.8934 666.655 87.5876C666.938 88.2819 667.082 89.0254 667.077 89.7754V168.46Z" fill="black"/>
<path id="Vector_18" d="M661.5 97.2658C669.239 97.2658 675.513 90.9383 675.513 83.1329C675.513 75.3275 669.239 69 661.5 69C653.761 69 647.487 75.3275 647.487 83.1329C647.487 90.9383 653.761 97.2658 661.5 97.2658Z" fill="#85D3C5"/>
<path id="Vector_19" d="M702.691 182.805C702.636 190.948 700.173 198.892 695.613 205.635C691.053 212.379 684.6 217.62 677.069 220.697C669.537 223.775 661.264 224.551 653.292 222.928C645.32 221.305 638.007 217.356 632.275 211.579C626.542 205.801 622.647 198.454 621.08 190.463C619.514 182.473 620.346 174.197 623.472 166.679C626.597 159.161 631.877 152.738 638.645 148.22C645.412 143.701 653.365 141.29 661.5 141.29C666.928 141.308 672.299 142.397 677.307 144.493C682.314 146.59 686.86 149.653 690.685 153.508C694.51 157.363 697.539 161.934 699.599 166.961C701.659 171.988 702.71 177.372 702.691 182.805V182.805Z" fill="#D15741"/>
</g>
<g id="face">
<path id="Vector_20" d="M770.144 304.207C770.162 309.448 769.149 314.642 767.161 319.491C765.173 324.34 762.251 328.75 758.56 332.467C754.868 336.185 750.482 339.138 745.65 341.158C740.818 343.178 735.636 344.224 730.4 344.238H592.742C587.493 344.243 582.296 343.21 577.448 341.199C572.6 339.187 568.196 336.237 564.49 332.517C560.784 328.798 557.849 324.382 555.852 319.524C553.856 314.665 552.837 309.46 552.856 304.207V216.901C552.837 211.658 553.851 206.462 555.838 201.611C557.825 196.76 560.748 192.348 564.438 188.628C568.129 184.907 572.515 181.951 577.347 179.927C582.18 177.904 587.362 176.853 592.6 176.834H730.258C735.508 176.834 740.706 177.871 745.555 179.887C750.403 181.902 754.806 184.855 758.512 188.578C762.217 192.3 765.152 196.718 767.148 201.579C769.145 206.439 770.163 211.646 770.144 216.901V304.207Z" fill="#E6AE55"/>
<path id="Vector_21" opacity="0.1" d="M659.241 176.834H730.4C735.638 176.853 740.821 177.904 745.653 179.927C750.485 181.951 754.871 184.907 758.562 188.628C762.252 192.348 765.175 196.76 767.162 201.611C769.149 206.462 770.163 211.658 770.144 216.901V304.207C770.163 309.448 769.149 314.642 767.161 319.491C765.174 324.34 762.251 328.75 758.56 332.467C754.869 336.185 750.482 339.138 745.65 341.158C740.818 343.178 735.636 344.224 730.4 344.238H659.241" fill="black"/>
</g>
<path id="mouth" d="M724.011 300.073C724.015 301.855 723.669 303.62 722.993 305.268C722.316 306.916 721.321 308.414 720.066 309.677C718.811 310.94 717.319 311.943 715.676 312.63C714.034 313.316 712.272 313.671 710.492 313.676H612.508C610.728 313.671 608.966 313.316 607.324 312.63C605.681 311.943 604.189 310.94 602.934 309.677C601.679 308.414 600.684 306.916 600.007 305.268C599.33 303.62 598.984 301.855 598.989 300.073V300.073C598.989 296.481 600.412 293.035 602.946 290.492C605.481 287.948 608.919 286.515 612.508 286.505H710.492C714.081 286.515 717.519 287.948 720.053 290.492C722.588 293.035 724.011 296.481 724.011 300.073Z" fill="black"/>
<g id="eye-left">
<path id="Vector_22" d="M638.628 247.181C638.6 251.675 637.243 256.06 634.728 259.783C632.214 263.506 628.654 266.401 624.498 268.101C620.342 269.802 615.776 270.232 611.376 269.339C606.976 268.445 602.939 266.267 599.774 263.079C596.609 259.891 594.458 255.836 593.592 251.427C592.726 247.017 593.185 242.449 594.909 238.299C596.634 234.15 599.547 230.604 603.282 228.11C607.017 225.616 611.407 224.285 615.896 224.285C618.891 224.294 621.854 224.894 624.617 226.05C627.38 227.205 629.888 228.894 631.999 231.02C634.11 233.146 635.782 235.668 636.919 238.441C638.056 241.213 638.637 244.183 638.628 247.181V247.181Z" fill="white"/>
<path id="Vector_23" d="M626.049 247.07C626.042 249.053 625.448 250.989 624.342 252.635C623.236 254.28 621.668 255.561 619.836 256.315C618.004 257.069 615.989 257.263 614.047 256.872C612.105 256.48 610.322 255.522 608.924 254.117C607.525 252.713 606.574 250.925 606.19 248.979C605.806 247.034 606.007 245.018 606.766 243.186C607.526 241.355 608.811 239.79 610.459 238.689C612.106 237.588 614.043 237 616.024 237C618.686 237.009 621.236 238.074 623.115 239.962C624.994 241.849 626.049 244.405 626.049 247.07Z" fill="black"/>
</g>
<g id="eye-right">
<path id="Vector_24" d="M729.8 247.181C729.772 251.675 728.415 256.06 725.9 259.783C723.386 263.506 719.826 266.401 715.67 268.101C711.514 269.802 706.948 270.232 702.548 269.339C698.148 268.445 694.111 266.267 690.946 263.079C687.781 259.891 685.63 255.836 684.764 251.427C683.899 247.017 684.357 242.449 686.081 238.299C687.806 234.15 690.719 230.604 694.454 228.11C698.189 225.616 702.579 224.285 707.068 224.285C710.063 224.294 713.026 224.894 715.789 226.05C718.552 227.205 721.06 228.894 723.171 231.02C725.282 233.146 726.954 235.668 728.091 238.441C729.228 241.213 729.809 244.183 729.8 247.181Z" fill="white"/>
<path id="Vector_25" d="M717.093 247.181C717.086 249.164 716.492 251.1 715.386 252.746C714.281 254.391 712.713 255.672 710.88 256.426C709.048 257.18 707.033 257.374 705.091 256.982C703.149 256.591 701.366 255.633 699.968 254.228C698.569 252.823 697.618 251.035 697.234 249.09C696.85 247.144 697.051 245.129 697.811 243.297C698.57 241.466 699.855 239.901 701.503 238.8C703.151 237.699 705.087 237.111 707.068 237.111C709.73 237.12 712.28 238.185 714.159 240.073C716.038 241.96 717.093 244.516 717.093 247.181V247.181Z" fill="black"/>
</g>
<path id="brow" d="M727.505 207.75C727.505 209.546 726.797 211.27 725.535 212.547C724.273 213.824 722.558 214.55 720.764 214.569H603.013C601.218 214.55 599.504 213.824 598.241 212.547C596.979 211.27 596.271 209.546 596.271 207.75V207.75C596.271 205.957 596.98 204.237 598.244 202.965C599.507 201.694 601.222 200.975 603.013 200.966H720.764C722.555 200.975 724.269 201.694 725.533 202.965C726.796 204.237 727.505 205.957 727.505 207.75V207.75Z" fill="#D15741"/>
</g>
<g id="body">
<path id="Vector_26" d="M637.357 636.401C637.376 643.936 634.418 651.173 629.128 656.534C623.839 661.895 616.646 664.945 609.119 665.02H602.06C594.53 664.954 587.332 661.907 582.04 656.544C576.749 651.181 573.794 643.938 573.822 636.401V630.677C573.794 623.139 576.749 615.897 582.04 610.534C587.332 605.17 594.53 602.123 602.06 602.058H609.119C616.646 602.132 623.839 605.183 629.128 610.544C634.418 615.905 637.376 623.142 637.357 630.677V636.401Z" fill="black"/>
<path id="Vector_27" d="M749.566 636.401C749.58 640.148 748.855 643.861 747.435 647.328C746.014 650.795 743.924 653.948 741.285 656.606C738.646 659.264 735.51 661.375 732.055 662.819C728.6 664.263 724.895 665.011 721.152 665.02H714.092C706.562 664.954 699.364 661.907 694.073 656.544C688.781 651.181 685.826 643.938 685.855 636.401V630.677C685.826 623.139 688.781 615.897 694.073 610.534C699.364 605.17 706.562 602.123 714.092 602.058H721.152C724.895 602.067 728.6 602.815 732.055 604.259C735.51 605.702 738.646 607.813 741.285 610.471C743.924 613.129 746.014 616.282 747.435 619.749C748.855 623.216 749.58 626.929 749.566 630.677V636.401Z" fill="black"/>
<path id="Vector_28" d="M578.623 429.636C578.574 436.795 576.409 443.78 572.4 449.708C568.391 455.637 562.718 460.245 556.097 462.951C549.475 465.657 542.201 466.339 535.193 464.913C528.184 463.486 521.754 460.014 516.714 454.935C511.674 449.855 508.25 443.396 506.872 436.371C505.495 429.346 506.226 422.069 508.974 415.46C511.723 408.85 516.364 403.203 522.314 399.231C528.264 395.258 535.256 393.138 542.408 393.138C552.044 393.176 561.271 397.041 568.062 403.884C574.852 410.728 578.651 419.991 578.623 429.636V429.636Z" fill="#B74964"/>
<path id="Vector_29" d="M744.342 429.636C744.391 436.795 746.556 443.78 750.565 449.708C754.574 455.637 760.247 460.245 766.868 462.951C773.49 465.657 780.763 466.339 787.772 464.913C794.781 463.486 801.21 460.014 806.25 454.935C811.29 449.855 814.715 443.396 816.092 436.371C817.47 429.346 816.738 422.069 813.99 415.46C811.242 408.85 806.6 403.203 800.65 399.231C794.7 395.258 787.709 393.138 780.557 393.138C770.921 393.176 761.693 397.041 754.903 403.884C748.112 410.728 744.314 419.991 744.342 429.636Z" fill="#B74964"/>
<path id="Vector_30" d="M778.403 614.954C778.417 618.701 777.693 622.415 776.272 625.882C774.852 629.349 772.762 632.501 770.123 635.159C767.484 637.817 764.348 639.929 760.893 641.372C757.438 642.816 753.733 643.564 749.989 643.573H569.622C562.092 643.508 554.894 640.46 549.603 635.097C544.311 629.734 541.356 622.492 541.384 614.954V402.96C541.366 395.429 544.324 388.195 549.615 382.84C554.906 377.485 562.098 374.442 569.622 374.377H749.989C753.73 374.386 757.432 375.133 760.885 376.574C764.337 378.016 767.472 380.124 770.11 382.778C772.749 385.432 774.839 388.581 776.262 392.044C777.685 395.507 778.413 399.216 778.403 402.96V614.954Z" fill="#85D3C5"/>
<path id="Vector_31" d="M742.824 583.19C742.833 585.81 742.326 588.406 741.332 590.83C740.338 593.253 738.877 595.457 737.031 597.314C735.185 599.172 732.991 600.647 730.576 601.655C728.16 602.663 725.569 603.184 722.952 603.188H596.659C594.042 603.184 591.451 602.663 589.036 601.655C586.62 600.647 584.426 599.172 582.581 597.314C580.735 595.457 579.273 593.253 578.279 590.83C577.285 588.406 576.778 585.81 576.787 583.19V434.795C576.778 432.173 577.285 429.576 578.278 427.15C579.272 424.724 580.733 422.519 582.578 420.658C584.424 418.798 586.617 417.32 589.033 416.308C591.449 415.296 594.041 414.771 596.659 414.761H722.952C725.571 414.771 728.162 415.296 730.578 416.308C732.994 417.32 735.188 418.798 737.033 420.658C738.878 422.519 740.339 424.724 741.333 427.15C742.327 429.576 742.833 432.173 742.824 434.795V583.19Z" fill="#D15741"/>
<path id="Vector_32" d="M714.799 473.802C714.799 494.471 691.044 511.219 661.853 511.219C632.663 511.219 608.908 494.471 608.908 473.802C608.908 453.132 632.627 436.385 661.853 436.385C691.079 436.385 714.799 453.026 714.799 473.802Z" fill="#B74964"/>
<path id="Vector_33" d="M688.255 473.802C688.255 484.119 676.36 492.492 661.712 492.492C647.064 492.492 635.31 484.119 635.31 473.802C635.31 463.485 647.17 455.111 661.818 455.111C676.466 455.111 688.255 463.626 688.255 473.802Z" fill="black"/>
<path id="Vector_34" d="M721.117 526.482C721.117 528.284 720.022 529.733 718.646 529.733H604.354C602.978 529.733 601.884 528.284 601.884 526.482C601.802 525.731 602.014 524.977 602.474 524.378C602.934 523.779 603.608 523.381 604.354 523.267H718.646C719.392 523.381 720.066 523.779 720.526 524.378C720.986 524.977 721.198 525.731 721.117 526.482V526.482Z" fill="#E6AE55"/>
<path id="Vector_35" d="M721.117 544.148C721.117 545.95 720.022 547.399 718.646 547.399H604.354C602.978 547.399 601.884 545.95 601.884 544.148C601.802 543.397 602.014 542.643 602.474 542.044C602.934 541.445 603.608 541.047 604.354 540.933H718.646C719.392 541.047 720.066 541.445 720.526 542.044C720.986 542.643 721.198 543.397 721.117 544.148V544.148Z" fill="#E6AE55"/>
<path id="Vector_36" d="M721.117 561.814C721.117 563.616 720.022 565.065 718.646 565.065H604.354C602.978 565.065 601.884 563.616 601.884 561.814C601.802 561.063 602.014 560.309 602.474 559.71C602.934 559.111 603.608 558.713 604.354 558.599H718.646C719.392 558.713 720.066 559.111 720.526 559.71C720.986 560.309 721.198 561.063 721.117 561.814Z" fill="#E6AE55"/>
<path id="Vector_37" d="M721.117 579.48C721.117 581.282 720.022 582.731 718.646 582.731H604.354C602.978 582.731 601.884 581.282 601.884 579.48C601.802 578.729 602.014 577.975 602.474 577.376C602.934 576.777 603.608 576.379 604.354 576.265H718.646C719.392 576.379 720.066 576.777 720.526 577.376C720.986 577.975 721.198 578.729 721.117 579.48V579.48Z" fill="#E6AE55"/>
<path id="Vector_38" d="M567.292 410.098C578.587 410.098 578.623 392.431 567.292 392.431C555.962 392.431 555.927 410.098 567.292 410.098Z" fill="white"/>
<path id="Vector_39" d="M749.354 623.01C760.684 623.01 760.72 605.344 749.354 605.344C737.988 605.344 738.024 623.01 749.354 623.01Z" fill="black"/>
</g>
</g>
</svg>
